<?xml version="1.0" encoding="iso-8859-1"?>
<!-- Generator: Adobe Illustrator 19.0.0, SVG Export Plug-In . SVG Version: 6.00 Build 0)  -->
<svg version="1.1" id="Capa_1" xmlns="http://www.w3.org/2000/svg" xmlns:xlink="http://www.w3.org/1999/xlink" x="0px" y="0px"
	 viewBox="0 0 512 512" style="enable-background:new 0 0 512 512;" xml:space="preserve">
<path style="fill:#4E901E;" d="M90.771,32.59c33.323-33.323,87.545-33.323,120.868,0c4.805,4.805,4.805,12.595,0,17.399
	L108.171,153.457c-4.805,4.805-12.595,4.805-17.399,0C57.448,120.133,57.448,65.912,90.771,32.59z"/>
<path style="fill:#47821C;" d="M142.108,28.046c8.132-8.133,17.515-14.265,27.53-18.429c-27.536-6.039-57.497,1.602-78.867,22.972
	c-33.323,33.323-33.323,87.544,0,120.868c4.805,4.805,12.595,4.805,17.399,0l21.057-21.057
	C109.567,99.575,113.853,56.3,142.108,28.046z"/>
<path style="fill:#FFEB99;" d="M100.708,43.146c28.21-28.21,73.945-28.21,102.155,0c2.656,2.656,5.062,5.465,7.217,8.403
	L109.111,152.517c-2.937-2.155-5.748-4.561-8.404-7.216C72.498,117.091,72.498,71.355,100.708,43.146z"/>
<path style="fill:#FFE477;" d="M138.761,23.171l20.822,78.873L80.733,81.2c2.542-13.939,9.197-27.276,19.975-38.054
	S124.822,25.714,138.761,23.171z"/>
<path style="fill:#B9D8F4;" d="M339.084,475.6h-20.629c-17.938,0-19.579-18.797-19.702-23.694V348.365
	c0.159-66.072,19.702-74.405,19.702-74.405h-60.145c0,0,19.705,8.394,19.705,75.212v102.586
	c-0.094,4.655-1.583,23.842-19.705,23.842h-20.624c-7.92,0-14.4,6.481-14.4,14.4c0,7.919,6.481,14.4,14.4,14.4h101.397
	c7.92,0,14.4-6.481,14.4-14.4C353.483,482.081,347.004,475.6,339.084,475.6z"/>
<g>
	<path style="fill:#96C8EF;" d="M258.312,475.6h-20.624c-7.92,0-14.4,6.481-14.4,14.4c0,7.919,6.481,14.4,14.4,14.4h22.205
		c-7.92,0-14.4-6.481-14.4-14.4C245.492,478.794,258.312,475.6,258.312,475.6z"/>
	<path style="fill:#96C8EF;" d="M275.502,312.563c9.505,2.593,16.598,2.254,25.768,0c5.311-33.536,17.188-38.603,17.188-38.603
		h-60.145C258.314,273.96,270.191,279.027,275.502,312.563z"/>
</g>
<path style="fill:#D1E7F8;" d="M444.118,80.086c-3.025-5.564-8.85-9.027-15.182-9.027H147.836c-6.333,0-12.158,3.464-15.182,9.027
	c-3.025,5.564-2.764,12.336,0.68,17.651l93.224,143.866c3.138,5.034,27.146,41.607,61.828,41.607s58.689-36.573,61.828-41.607
	l93.223-143.866C446.881,92.422,447.142,85.65,444.118,80.086z"/>
<path style="fill:#B9D8F4;" d="M306.081,241.602L212.857,97.737c-3.444-5.314-3.704-12.087-0.68-17.651
	c3.025-5.564,8.85-9.027,15.182-9.027h-79.523c-6.333,0-12.158,3.464-15.182,9.027c-3.025,5.564-2.764,12.336,0.68,17.651
	l93.224,143.866c3.138,5.034,27.146,41.607,61.828,41.607c15.791,0,29.359-7.586,39.761-16.32
	C315.701,256.439,307.79,244.344,306.081,241.602z"/>
<path style="fill:#FF0C38;" d="M409.628,97.537c-2.318-4.266-6.785-6.92-11.64-6.92H178.782c-4.855,0-9.321,2.656-11.64,6.92
	c-2.318,4.266-2.119,9.458,0.522,13.532l74.207,114.519c0,0,17.891,32.29,46.515,32.29c25.638,0,44.35-28.823,46.393-32.099
	l74.328-114.709C411.747,106.995,411.947,101.803,409.628,97.537z"/>
<g>
	<path style="fill:#D80027;" d="M167.142,97.537c-2.318,4.266-2.119,9.458,0.522,13.532l74.207,114.519
		c0,0,17.891,32.29,46.515,32.29c8.797,0,16.778-3.394,23.552-7.984c-3.086-3.973-5.094-7.067-5.857-8.29L212.857,97.737
		c-1.418-2.188-2.287-4.623-2.618-7.12h-31.457C173.926,90.617,169.46,93.272,167.142,97.537z"/>
	<path style="fill:#D80027;" d="M346.105,152.401c-3.597-2.163-4.528-6.987-2.245-10.51l4.173-6.439
		c2.282-3.522,6.987-4.528,10.509-2.244c3.523,2.282,4.528,6.987,2.245,10.51l-4.173,6.439
		C355.159,152.401,351.037,155.368,346.105,152.401z"/>
	<path style="fill:#D80027;" d="M316.321,198.363c-3.413-2.444-4.528-6.987-2.245-10.51l18.804-29.018
		c2.282-3.522,6.988-4.528,10.509-2.244c3.523,2.282,4.528,6.987,2.245,10.51l-18.804,29.018
		C325.377,198.364,320.472,201.336,316.321,198.363z"/>
</g>
<path d="M415.484,115.203c4.158-6.417,4.473-14.575,0.823-21.294c-3.651-6.719-10.669-10.891-18.316-10.891H178.782
	c-7.646,0-14.665,4.174-18.316,10.891c-3.652,6.717-3.337,14.876,0.822,21.293l74.082,114.324
	c1.993,3.492,21.379,35.952,53.018,35.952c29.032,0,49-29.533,52.806-35.621L415.484,115.203z M328.33,221.758
	c-0.727,1.164-18.032,28.521-39.945,28.521c-23.72,0-39.716-28.103-39.867-28.374l-0.127-0.23l-74.35-114.737
	c-1.127-1.739-1.212-3.951-0.223-5.769c0.99-1.821,2.892-2.952,4.963-2.952h219.208c2.072,0,3.974,1.131,4.962,2.952
	c0.99,1.82,0.905,4.031-0.223,5.769l-74.327,114.709L328.33,221.758z"/>
<path d="M291.155,379.497c0,4.197,3.401,7.599,7.599,7.599s7.599-3.402,7.599-7.599v-31.112
	c0.117-48.793,11.042-63.377,14.388-66.685c0.134-0.133,0.255-0.273,0.377-0.412c19.613-11.636,32.268-30.42,35.508-35.607
	l93.187-143.81c4.963-7.658,5.339-17.396,0.981-25.413c-4.358-8.018-12.733-12.998-21.859-12.998h-220.02l8.097-8.097
	c3.759-3.759,5.829-8.757,5.829-14.074s-2.07-10.314-5.829-14.073c-36.287-36.287-95.328-36.287-131.615,0
	c-36.286,36.286-36.286,95.328,0,131.614c3.759,3.759,8.757,5.829,14.073,5.829c5.316,0,10.315-2.07,14.073-5.829l21.057-21.057
	c2.968-2.968,2.968-7.78,0-10.746c-2.968-2.968-7.78-2.968-10.746,0l-10.349,10.349c-1.864-2.164-3.668-4.306-4.883-5.864
	c-13.933-17.99-13.849-38.254-13.837-38.737l31.752,8.394c0.141,0.233,0.272,0.471,0.42,0.7l93.188,143.812
	c3.239,5.185,15.867,23.93,35.441,35.568c0.094,0.1,0.182,0.203,0.284,0.299c3.413,3.253,14.548,17.746,14.548,67.625v102.505
	c-0.137,6.132-1.902,16.323-12.106,16.323h-20.624c-12.13,0-21.999,9.869-21.999,21.999S225.557,512,237.687,512h101.397
	c12.13,0,21.999-9.869,21.999-21.999s-9.869-21.999-21.999-21.999h-20.628c-10.126,0-11.934-10.102-12.102-16.194l0.003-47.824
	c0-4.197-3.401-7.599-7.599-7.599s-7.599,3.402-7.599,7.599l-0.003,47.923l0.002,0.19c0.36,14.347,7.725,31.102,27.299,31.102
	h20.628c3.75,0,6.801,3.051,6.801,6.801c0,3.75-3.051,6.801-6.801,6.801H237.687c-3.75,0-6.801-3.051-6.801-6.801
	c0-3.75,3.051-6.801,6.801-6.801h20.624c19.684,0,27.011-16.854,27.304-31.287l0.001-102.74c0-28.421-3.545-47.113-7.938-59.368
	c3.446,0.643,7.015,1.003,10.707,1.003c3.652,0,7.184-0.351,10.594-0.98c-4.431,12.374-7.758,30.873-7.825,58.538L291.155,379.497
	L291.155,379.497z M100.707,145.3c0.818,0.818,1.655,1.603,2.501,2.372c0,0-3.791,3.676-7.062,0.41
	c-30.387-30.333-30.361-79.76,0-110.121s79.661-30.26,110.122,0c3.814,3.788-1.031,7.683-1.031,7.683
	c-0.77-0.846-1.555-1.683-2.373-2.501c-14.104-14.104-32.591-21.156-51.077-21.156s-36.973,7.052-51.077,21.156
	C72.498,71.355,72.498,117.091,100.707,145.3z M194.235,56.646l-6.814,6.814h-30.165l-6.926-26.236
	c0.484-0.012,0.968-0.035,1.454-0.035c13.842,0,26.932,4.898,37.289,13.873C189.073,51.061,191.697,53.429,194.235,56.646z
	 M125.977,76.457c-1.398,2.572-2.303,5.322-2.732,8.121L97.417,77.75c-0.083-0.021-0.165-0.033-0.248-0.053
	c2.679-8.897,7.529-17.05,14.285-23.805c6.754-6.754,14.905-11.604,23.8-14.284c0.018,0.082,0.03,0.163,0.052,0.245l6.435,24.374
	C135.097,65.906,129.34,70.272,125.977,76.457z M288.385,275.609c-30.782,0-52.953-34.135-55.38-38.028L139.711,93.604
	c-1.931-2.98-2.077-6.769-0.381-9.888c1.696-3.12,4.956-5.058,8.506-5.058h281.099c3.55,0,6.81,1.937,8.506,5.057
	c1.696,3.12,1.549,6.908-0.382,9.889l-93.223,143.866l-0.071,0.111C341.338,241.473,319.164,275.609,288.385,275.609z"/>
<g>
</g>
<g>
</g>
<g>
</g>
<g>
</g>
<g>
</g>
<g>
</g>
<g>
</g>
<g>
</g>
<g>
</g>
<g>
</g>
<g>
</g>
<g>
</g>
<g>
</g>
<g>
</g>
<g>
</g>
</svg>
