<svg xmlns="http://www.w3.org/2000/svg" id="Capa_1" viewBox="0 0 512 512"><style>.a{fill:#B9D8F4;}.b{fill:#96C8EF;}.c{fill:#D80027;}</style><path d="M85.7 25.8c34.3-34.3 90.2-34.3 124.6 0 5 5 5 13 0 17.9L103.7 150.3c-5 5-13 5-17.9 0C51.4 116 51.4 60.1 85.7 25.8z" fill="#4E901E"/><path d="M138.6 21.1C147 12.7 156.7 6.4 167 2.1c-28.4-6.2-59.3 1.7-81.3 23.7 -34.3 34.3-34.3 90.2 0 124.6 5 5 13 5 17.9 0l21.7-21.7C105.1 94.8 109.5 50.2 138.6 21.1z" fill="#47821C"/><path d="M96 36.6c29.1-29.1 76.2-29.1 105.3 0 2.7 2.7 5.2 5.6 7.4 8.7L104.6 149.4c-3-2.2-5.9-4.7-8.7-7.4C66.9 112.8 66.9 65.7 96 36.6z" fill="#FFEB99"/><path d="M135.2 16.1l21.5 81.3L75.4 75.9c2.6-14.4 9.5-28.1 20.6-39.2S120.8 18.7 135.2 16.1z" fill="#FFE477"/><path d="M341.6 482.3H320.4c-18.5 0-20.2-19.4-20.3-24.4V351.2c0.2-68.1 20.3-76.7 20.3-76.7h-62c0 0 20.3 8.7 20.3 77.5v105.7c-0.1 4.8-1.6 24.6-20.3 24.6H237.1c-8.2 0-14.8 6.7-14.8 14.8 0 8.2 6.7 14.8 14.8 14.8h104.5c8.2 0 14.8-6.7 14.8-14.8C356.5 489 349.8 482.3 341.6 482.3z" class="a"/><path d="M258.4 482.3H237.1c-8.2 0-14.8 6.7-14.8 14.8s6.7 14.8 14.8 14.8h22.9c-8.2 0-14.8-6.7-14.8-14.8C245.2 485.6 258.4 482.3 258.4 482.3z" class="b"/><path d="M276.1 314.3c9.8 2.7 17.1 2.3 26.6 0 5.5-34.6 17.7-39.8 17.7-39.8h-62C258.4 274.5 270.6 279.7 276.1 314.3z" class="b"/><path d="M449.9 74.7c-3.1-5.7-9.1-9.3-15.6-9.3H144.5c-6.5 0-12.5 3.6-15.6 9.3 -3.1 5.7-2.8 12.7 0.7 18.2l96.1 148.3c3.2 5.2 28 42.9 63.7 42.9s60.5-37.7 63.7-42.9l96.1-148.3C452.7 87.4 453 80.4 449.9 74.7z" fill="#D1E7F8"/><path d="M307.6 241.2L211.5 92.9c-3.5-5.5-3.8-12.5-0.7-18.2 3.1-5.7 9.1-9.3 15.6-9.3h-82c-6.5 0-12.5 3.6-15.6 9.3 -3.1 5.7-2.8 12.7 0.7 18.2l96.1 148.3c3.2 5.2 28 42.9 63.7 42.9 16.3 0 30.3-7.8 41-16.8C317.5 256.5 309.4 244 307.6 241.2z" class="a"/><path d="M414.3 92.7c-2.4-4.4-7-7.1-12-7.1H176.4c-5 0-9.6 2.7-12 7.1 -2.4 4.4-2.2 9.7 0.5 13.9l76.5 118c0 0 18.4 33.3 47.9 33.3 26.4 0 45.7-29.7 47.8-33.1l76.6-118.2C416.5 102.4 416.7 97.1 414.3 92.7z" fill="#FF0C38"/><path d="M164.4 92.7c-2.4 4.4-2.2 9.7 0.5 13.9l76.5 118c0 0 18.4 33.3 47.9 33.3 9.1 0 17.3-3.5 24.3-8.2 -3.2-4.1-5.2-7.3-6-8.5L211.5 92.9c-1.5-2.3-2.4-4.8-2.7-7.3h-32.4C171.4 85.6 166.8 88.3 164.4 92.7z" class="c"/><path d="M348.9 149.2c-3.7-2.2-4.7-7.2-2.3-10.8l4.3-6.6c2.4-3.6 7.2-4.7 10.8-2.3 3.6 2.4 4.7 7.2 2.3 10.8l-4.3 6.6C358.2 149.2 353.9 152.3 348.9 149.2z" class="c"/><path d="M318.2 196.6c-3.5-2.5-4.7-7.2-2.3-10.8l19.4-29.9c2.4-3.6 7.2-4.7 10.8-2.3 3.6 2.4 4.7 7.2 2.3 10.8L329 194.3C327.5 196.6 322.4 199.7 318.2 196.6z" class="c"/></svg>