<svg xmlns="http://www.w3.org/2000/svg" viewBox="0 0 512 512"><style>.a{fill:#234848;}</style><path d="M289.1 273.3h-144.2c-31.8-30.1-27.6-89.5 0.4-125l-0.4 0.5c22.8-26.3 36.6-60.8 36.6-98.6 0-17.6-3-34.5-8.5-50.2 52.9 7.5 143.1 41.4 143 148.7L289.1 273.3z" fill="#DDC98B"/><path d="M289.1 273.3h-83.8c-12.4-31.4-5-73 16.6-100.4 22.6-26.3 36.2-60.6 36.2-98.1 0-16.6-2.7-32.5-7.6-47.4 35.5 22.1 65.5 59.6 65.5 121.4L289.1 273.3z" fill="#BC9A5E"/><path d="M445.9 171.6h-35.3v-26.9H61.2v138.8c0 76.3 61.6 138.8 136.9 138.8h75.7c58.4 0 108.6-37.6 128.1-90.2h44.1c36.4 0 66.1-30 66.1-66.9v-26.8C512 201.6 482.4 171.6 445.9 171.6zM489.9 265.3c0 24.7-19.7 44.7-43.9 44.7H408.1c1.7-8.6 2.5-17.5 2.5-26.5v-89.8h35.3c24.2 0 44 20.1 44 44.7L489.9 265.3 489.9 265.3z" class="a"/><path d="M240.1 144.7v137.6c0 60.1-38.2 111.6-91.1 130.8 -51.2-20.1-87.8-70.7-87.8-129.5V144.7H240.1z" fill="#415E5C"/><path d="M500.6 503.1c0 4.9-4 8.9-8.9 8.9H8.9C4 512 0 508 0 503.1c0-4.9 4-8.9 8.9-8.9h482.8C496.6 494.2 500.6 498.2 500.6 503.1z" class="a"/></svg>