<svg xmlns="http://www.w3.org/2000/svg" viewBox="0 0 512 512"><style>.a{fill:#AA6455;}.b{fill:#B4E1FA;}.c{fill:#DAF0FD;}.d{fill:#D2555A;}.e{fill:#C7CFE2;}.f{fill:#FF6464;}.g{fill:#EFF2FA;}.h{fill:#5B5D6E;}.i{fill:#A0D2F0;}</style><path d="M494.3 463.4H17.7V48.6c0-4.9 4-8.8 8.8-8.8h459c4.9 0 8.8 4 8.8 8.8V463.4z" fill="#B9785F"/><path d="M494.3 180.2c-1.8 0.5-3.7 0.8-5.6 0.8 -12.9 0-23.3-10.4-23.3-23.3 0 12.9-10.4 23.3-23.3 23.3 -12.9 0-23.3-10.4-23.3-23.3 0 12.9-10.4 23.3-23.3 23.3 -12.9 0-23.3-10.4-23.3-23.3 0 12.9-10.4 23.3-23.3 23.3s-23.3-10.4-23.3-23.3c0 12.9-10.4 23.3-23.3 23.3 -12.9 0-23.3-10.4-23.3-23.3 0 12.9-10.4 23.3-23.3 23.3s-23.3-10.4-23.3-23.3c0 12.9-10.4 23.3-23.3 23.3 -12.9 0-23.3-10.4-23.3-23.3 0 12.9-10.4 23.3-23.3 23.3 -12.9 0-23.3-10.4-23.3-23.3 0 12.9-10.4 23.3-23.3 23.3 -12.9 0-23.3-10.4-23.3-23.3 0 12.9-10.4 23.3-23.3 23.3s-23.3-10.4-23.3-23.3c0 12.9-10.4 23.3-23.3 23.3 -1.9 0-3.8-0.3-5.6-0.8v17.8c1.9 0.3 3.7 0.6 5.6 0.6 8.6 0 16.7-2.7 23.3-7.3 6.6 4.6 14.6 7.3 23.3 7.3 8.6 0 16.7-2.7 23.3-7.3 6.6 4.6 14.6 7.3 23.3 7.3s16.7-2.7 23.3-7.3c6.6 4.6 14.6 7.3 23.3 7.3 8.6 0 16.7-2.7 23.3-7.3 6.6 4.6 14.6 7.3 23.3 7.3 8.6 0 16.7-2.7 23.3-7.3 6.6 4.6 14.6 7.3 23.3 7.3s16.7-2.7 23.3-7.3c6.6 4.6 14.6 7.3 23.3 7.3 8.6 0 16.7-2.7 23.3-7.3 6.6 4.6 14.6 7.3 23.3 7.3 8.6 0 16.7-2.7 23.3-7.3 6.6 4.6 14.6 7.3 23.3 7.3s16.7-2.7 23.3-7.3c6.6 4.6 14.6 7.3 23.3 7.3 8.6 0 16.7-2.7 23.3-7.3 6.6 4.6 14.6 7.3 23.3 7.3 1.9 0 3.8-0.3 5.6-0.6v-17.8H494.3z" class="a"/><rect x="61.8" y="216.3" width="247.2" height="158.9" class="b"/><polygon points="264.8 366.3 247.2 366.3 141.2 225.1 158.9 225.1 " class="c"/><path d="M209.5 181L209.5 181c-12.9 0-23.3-10.4-23.3-23.3v-20.9h46.5v20.9C232.7 170.5 222.3 181 209.5 181z" class="d"/><path d="M302.5 181L302.5 181c-12.9 0-23.3-10.4-23.3-23.3v-20.9h46.5v20.9C325.8 170.5 315.4 181 302.5 181z" class="d"/><path d="M116.4 181L116.4 181c-12.9 0-23.3-10.4-23.3-23.3v-20.9h46.5v20.9C139.6 170.5 129.2 181 116.4 181z" class="d"/><path d="M23.3 181L23.3 181C10.4 181 0 170.5 0 157.7v-20.9h46.5v20.9C46.5 170.5 36.1 181 23.3 181z" class="d"/><path d="M395.6 181L395.6 181c-12.9 0-23.3-10.4-23.3-23.3v-20.9h46.5v20.9C418.9 170.5 408.5 181 395.6 181z" class="d"/><path d="M162.9 181L162.9 181c-12.9 0-23.3-10.4-23.3-23.3v-20.9h46.5v20.9C186.2 170.5 175.8 181 162.9 181z" class="e"/><path d="M349.1 181L349.1 181c-12.9 0-23.3-10.4-23.3-23.3v-20.9h46.5v20.9C372.4 170.5 361.9 181 349.1 181z" class="e"/><path d="M488.7 181L488.7 181c-12.9 0-23.3-10.4-23.3-23.3v-20.9H512v20.9C512 170.5 501.6 181 488.7 181z" class="d"/><path d="M442.2 181L442.2 181c-12.9 0-23.3-10.4-23.3-23.3v-20.9h46.5v20.9C465.5 170.5 455 181 442.2 181z" class="e"/><path d="M69.8 181L69.8 181c-12.9 0-23.3-10.4-23.3-23.3v-20.9h46.5v20.9C93.1 170.5 82.7 181 69.8 181z" class="e"/><path d="M256 181L256 181c-12.9 0-23.3-10.4-23.3-23.3v-20.9h46.5v20.9C279.3 170.5 268.9 181 256 181z" class="e"/><polygon points="232.7 136.8 186.2 136.8 191 66.2 234.3 66.2 " class="f"/><polygon points="325.8 136.8 279.3 136.8 277.7 66.2 321 66.2 " class="f"/><polygon points="139.6 136.8 93.1 136.8 104.3 66.2 147.7 66.2 " class="f"/><polygon points="46.5 136.8 0 136.8 17.7 66.2 61 66.2 " class="f"/><polygon points="418.9 136.8 372.4 136.8 364.3 66.2 407.7 66.2 " class="f"/><polygon points="186.2 136.8 139.6 136.8 147.7 66.2 191 66.2 " class="g"/><polygon points="372.4 136.8 325.8 136.8 321 66.2 364.3 66.2 " class="g"/><polygon points="512 136.8 465.5 136.8 451 66.2 494.3 66.2 " class="f"/><polygon points="465.5 136.8 418.9 136.8 407.7 66.2 451 66.2 " class="g"/><polygon points="93.1 136.8 46.5 136.8 61 66.2 104.3 66.2 " class="g"/><polygon points="279.3 136.8 232.7 136.8 234.3 66.2 277.7 66.2 " class="g"/><path d="M503.2 472.3H8.8c-4.9 0-8.8-4-8.8-8.8l0 0c0-4.9 4-8.8 8.8-8.8h494.3c4.9 0 8.8 4 8.8 8.8l0 0C512 468.3 508 472.3 503.2 472.3z" class="e"/><rect x="17.7" y="437" width="476.7" height="17.7" fill="#AFB9D2"/><rect x="17.7" y="401.7" width="476.7" height="35.3" class="a"/><path d="M300.1 225.1v141.2H70.6V225.1H300.1M309 207.4H61.8c-4.9 0-8.8 4-8.8 8.8v158.9c0 4.9 4 8.8 8.8 8.8h247.2c4.9 0 8.8-4 8.8-8.8V216.3C317.8 211.4 313.8 207.4 309 207.4L309 207.4z" class="h"/><path d="M450.2 207.4h-88.3c-4.9 0-8.8 4-8.8 8.8v220.7h105.9v-220.7C459 211.4 455.1 207.4 450.2 207.4z" class="h"/><rect x="370.8" y="225.1" width="70.6" height="141.2" class="b"/><rect x="70.6" y="225.1" width="229.5" height="17.7" class="i"/><rect x="370.8" y="225.1" width="70.6" height="17.7" class="i"/><polygon points="229.5 366.3 194.2 366.3 88.3 225.1 123.6 225.1 " class="i"/><polygon points="172.1 242.8 158.9 225.1 141.2 225.1 154.5 242.8 " class="b"/><polygon points="441.4 295.7 388.4 225.1 370.8 225.1 441.4 319.3 " class="c"/><polygon points="401.7 242.8 388.4 225.1 370.8 225.1 384 242.8 " class="b"/><rect x="370.8" y="225.1" width="70.6" height="17.7" class="i"/><polygon points="441.4 295.7 388.4 225.1 370.8 225.1 441.4 319.3 " class="c"/><polygon points="370.8 248.6 370.8 295.7 423.7 366.3 441.4 366.3 441.4 342.8 " class="i"/></svg>