<svg xmlns="http://www.w3.org/2000/svg" viewBox="0 0 512 512"><style>.a{fill:#5CA8D3;}.b{fill:#FDA162;}.c{fill:#FDCE6E;}.d{fill:#99D9FF;}.e{fill:#5389A9;}.f{fill:#FDFA7B;}</style><path d="M359.5 0c-4.5 0-8.2 3.7-8.2 8.2v27.2h16.3V8.2C367.7 3.7 364 0 359.5 0z" class="a"/><path d="M152.5 89.9L98 144.3l54.5-21.8c18 0 32.7-14.7 32.7-32.7H152.5z" class="b"/><path d="M43.6 89.9h108.9c0 18-14.7 32.7-32.7 32.7L98 144.3l-21.8-21.8C58.3 122.6 43.6 107.8 43.6 89.9z" class="c"/><path d="M152.5 122.6l-54.5 54.5 54.5-21.8c18 0 32.7-14.7 32.7-32.7H152.5z" class="b"/><path d="M43.6 122.6h108.9c0 18-14.7 32.7-32.7 32.7l-21.8 21.8 -21.8-21.8C58.3 155.2 43.6 140.5 43.6 122.6z" class="c"/><path d="M152.5 155.2l-54.5 54.5 54.5-21.8c18 0 32.7-14.7 32.7-32.7H152.5z" class="b"/><path d="M43.6 155.2h108.9c0 18-14.7 32.7-32.7 32.7l-21.8 21.8 -21.8-21.8C58.3 187.9 43.6 173.2 43.6 155.2z" class="c"/><path d="M152.5 187.9l-54.5 54.5 54.5-21.8c18 0 32.7-14.7 32.7-32.7H152.5z" class="b"/><path d="M43.6 187.9h108.9c0 18-14.7 32.7-32.7 32.7l-21.8 21.8 -21.8-21.8C58.3 220.6 43.6 205.9 43.6 187.9z" class="c"/><path d="M359.5 24.5v119.8l98-21.8C457.5 68.4 413.6 24.5 359.5 24.5z" fill="#66C6FE"/><path d="M424.9 122.6l-81.7 21.8 -81.7-21.8c0-54.2 43.9-98 98-98C395.6 24.5 424.9 68.4 424.9 122.6z" class="d"/><rect x="250.6" y="122.6" width="185.2" height="32.7" class="a"/><rect x="435.7" y="122.6" width="32.7" height="32.7" class="e"/><path d="M187.9 196.1H40.9c-4.5 0-8.2-3.7-8.2-8.2s3.7-8.2 8.2-8.2h147.1c4.5 0 8.2 3.7 8.2 8.2S192.4 196.1 187.9 196.1z" class="f"/><path d="M187.9 163.4H40.9c-4.5 0-8.2-3.7-8.2-8.2s3.7-8.2 8.2-8.2h147.1c4.5 0 8.2 3.7 8.2 8.2S192.4 163.4 187.9 163.4z" class="f"/><path d="M187.9 130.7H40.9c-4.5 0-8.2-3.7-8.2-8.2 0-4.5 3.7-8.2 8.2-8.2h147.1c4.5 0 8.2 3.7 8.2 8.2C196.1 127.1 192.4 130.7 187.9 130.7z" class="f"/><path d="M187.9 98H40.9c-4.5 0-8.2-3.7-8.2-8.2s3.7-8.2 8.2-8.2h147.1c4.5 0 8.2 3.7 8.2 8.2S192.4 98 187.9 98z" class="f"/><rect x="242.4" y="122.6" width="16.3" height="119.8" class="e"/><rect x="460.3" y="122.6" width="16.3" height="119.8" fill="#496A7E"/><path d="M452.1 431.2v72.6c0 4.5 3.7 8.2 8.2 8.2 4.5 0 8.2-3.7 8.2-8.2v-72.6H452.1z" fill="#B1786B"/><path d="M43.6 431.2v72.6c0 4.5 3.7 8.2 8.2 8.2s8.2-3.7 8.2-8.2v-72.6H43.6z" fill="#CB9385"/><path d="M256 242.4L19.1 286v32.3l403.1 79.3 37.8 66.1c8.1 4.1 17.5 7.4 33 7.4V286L256 242.4z" class="b"/><polygon points="495.8 220.6 495.8 286 463.1 286 440 256 463.1 220.6 " class="d"/><rect x="16.2" y="220.6" width="446.9" height="65.4" fill="#CCECFF"/><path d="M459.9 318.6H19.1v152.5c39.5 0 39.5-21.8 79-21.8s39.5 21.8 79 21.8 39.5-21.8 79-21.8 39.5 21.8 79 21.8c39.5 0 39.5-21.8 79-21.8 24 0 33.4 8 46 14.4V318.6H459.9z" class="c"/><circle cx="435.4" cy="373.1" r="8.2" class="b"/><circle cx="402.7" cy="405.8" r="8.2" class="b"/><path d="M479.3 130.7h-239.7c-4.5 0-8.2-3.7-8.2-8.2 0-4.5 3.7-8.2 8.2-8.2h239.7c4.5 0 8.2 3.7 8.2 8.2C487.5 127.1 483.8 130.7 479.3 130.7z" class="e"/></svg>