<svg xmlns="http://www.w3.org/2000/svg" viewBox="0 0 501.6 501.6"><style>.a{fill:#F2F2F2;}.b{fill:#FFF;}.c{fill:#40596B;}.d{fill:#FF7058;}.e{fill:#CDD6E0;}.f{fill:#ACB3BA;}.g{fill:#F1543F;}</style><path d="M20.9 147.3v333.3c0 11.5 9.4 20.9 20.9 20.9h418c11.5 0 20.9-9.4 20.9-20.9V147.3H20.9z" class="a"/><path d="M253.9 239.3v49.1c-1 0-2.1 0-3.1 0 -1 0-2.1 0-3.1 0v-49.1L253.9 239.3 253.9 239.3z" class="b"/><path d="M253.9 431.5v49.1h-5.2v-49.1c1 0 2.1 0 3.1 0S252.9 431.5 253.9 431.5z" class="b"/><path d="M338.5 276.9l-34.5 34.5c-1-1-2.1-3.1-4.2-4.2l35.5-34.5L338.5 276.9z" class="b"/><path d="M202.7 412.7l-35.5 34.5 -4.2-3.1 34.5-34.5C199.6 410.6 200.6 411.7 202.7 412.7z" class="b"/><path d="M372 357.4v5.2h-49.1c0-1 0-2.1 0-2.1 0-1 0-2.1 0-3.1H372z" class="b"/><path d="M179.7 360.5c0 1 0 2.1 0 2.1h-49.1v-5.2h49.1C179.7 358.4 179.7 359.4 179.7 360.5z" class="b"/><path d="M338.5 444.1l-4.2 4.2 -35.5-35.5c1-1 3.1-2.1 4.2-4.2L338.5 444.1z" class="b"/><path d="M202.7 308.2c-1 1-3.1 2.1-4.2 4.2l-35.5-35.5 4.2-4.2L202.7 308.2z" class="b"/><path d="M225.7 293.6c-2.1 0-3.1 1-5.2 2.1l-11.5-28.2 5.2-2.1L225.7 293.6z" class="b"/><path d="M292.6 453.5l-5.2 2.1 -11.5-28.2c2.1-1 3.1-1 5.2-2.1L292.6 453.5z" class="b"/><path d="M186 331.2c-1 1-1 3.1-2.1 5.2l-28.2-11.5 2.1-5.2L186 331.2z" class="b"/><path d="M345.9 397.1l-2.1 5.2 -28.2-11.5c1-1 1-3.1 2.1-5.2L345.9 397.1z" class="b"/><path d="M186 389.7l-28.2 11.5 -2.1-5.2 28.2-11.5C183.9 386.6 184.9 388.7 186 389.7z" class="b"/><path d="M345.9 323.9l-28.2 11.5c0-2.1-1-3.1-2.1-5.2l28.2-11.5L345.9 323.9z" class="b"/><path d="M225.7 427.4l-11.5 28.2 -5.2-2.1 11.5-28.2C222.6 426.3 224.7 426.3 225.7 427.4z" class="b"/><path d="M292.6 267.5l-11.5 28.2c-1-1-3.1-1-5.2-2.1l11.5-28.2L292.6 267.5z" class="b"/><path d="M459.8 0H41.8C30.3 0 20.9 9.4 20.9 20.9v73.1h459.8V20.9C480.7 9.4 471.2 0 459.8 0z" fill="#FFD15C"/><polygon points="343.8 343.8 368.8 432.6 391.8 410.6 413.8 432.6 433.6 412.7 411.7 390.8 433.6 368.8 " class="c"/><circle cx="193.3" cy="47" r="15.7" class="d"/><circle cx="132.7" cy="47" r="15.7" class="a"/><circle cx="72.1" cy="47" r="15.7" class="c"/><path d="M480.7 157.8v61.6c-8.4 6.3-18.8 9.4-29.3 9.4 -28.2 0-50.2-21.9-50.2-50.2 0 27.2-23 50.2-50.2 50.2 -27.2 0-50.2-21.9-50.2-50.2 0 27.2-23 50.2-50.2 50.2s-50.2-21.9-50.2-50.2c0 27.2-21.9 50.2-50.2 50.2s-50.2-21.9-50.2-50.2c0 27.2-23 50.2-50.2 50.2 -11.5 0-20.9-3.1-29.3-9.4V157.8L480.7 157.8 480.7 157.8z" fill="#E4EAEF"/><polygon points="100.3 147.3 0 147.3 20.9 94 112.8 94 " class="d"/><polygon points="200.6 147.3 100.3 147.3 112.8 94 204.8 94 " class="e"/><polygon points="300.9 147.3 200.6 147.3 204.8 94 296.8 94 " class="d"/><polygon points="401.2 147.3 300.9 147.3 296.8 94 388.7 94 " class="e"/><polygon points="501.6 147.3 401.2 147.3 388.7 94 480.7 94 " class="d"/><path d="M100.3 169.3c0 28.2 21.9 50.2 50.2 50.2s50.2-21.9 50.2-50.2v-21.9H100.3V169.3z" class="f"/><path d="M300.9 147.3v21.9c0 28.2 21.9 50.2 50.2 50.2s50.2-21.9 50.2-50.2v-21.9H300.9z" class="f"/><path d="M0 169.3c0 28.2 21.9 50.2 50.2 50.2l0 0c28.2 0 50.2-21.9 50.2-50.2v-21.9H0V169.3z" class="g"/><path d="M200.6 169.3c0 28.2 21.9 50.2 50.2 50.2s50.2-21.9 50.2-50.2v-21.9H200.6L200.6 169.3 200.6 169.3z" class="g"/><path d="M401.2 147.3v21.9c0 28.2 21.9 50.2 50.2 50.2s50.2-21.9 50.2-50.2v-21.9H401.2z" class="g"/><circle cx="250.8" cy="360.5" r="78.4" class="d"/><path d="M238.2 383.5l-3.1-9.4h60.6v-46h-72.1l-4.2-16.7h-20.9v7.3h15.7l18.8 72.1h64.8v-7.3H238.2zM288.4 336.5v30.3h-54.3l-8.4-30.3H288.4z" class="b"/><circle cx="248.7" cy="406.5" r="9.4" class="b"/><circle cx="283.2" cy="406.5" r="9.4" class="b"/></svg>