<svg xmlns="http://www.w3.org/2000/svg" viewBox="0 0 512 512"><style>.a{fill:#083B25;}.b{fill:#0B4E31;}.c{fill:#10744A;}</style><polygon points="295.4 0 298.1 33.8 241.8 56.3 261.5 0 " class="a"/><polygon points="261.5 0 264.3 33.8 239.1 67.5 213.9 33.8 216.6 0 " class="b"/><path d="M309 166.6L298.1 33.8h-33.9l-33.8 208.7L320 512c18.6 0 33.8-15.2 33.8-33.8l0-230.7C353.8 213.4 335.9 183.5 309 166.6z" class="c"/><path d="M276.7 186.2L264.3 33.8h-50.4l-10.8 132.8c-26.9 16.9-44.8 46.9-44.8 81l0 230.7c0 18.6 15.2 33.8 33.8 33.8h128l0-33.9L276.7 186.2z" fill="#169B62"/><path d="M320 478.1l0-230.6c0-21.4-10.8-41-29-52.4l-14.3-9H257.3l29 292v0.1l33.7 0C319.9 478.2 320 478.2 320 478.1z" class="b"/><path d="M286.3 478.1v0.1l-94.2 0c0 0-0.1 0-0.1 0V247.6c0-21.4 10.8-41 29-52.4l14.3-9h22c18.2 11.4 29 31 29 52.4L286.3 478.1z" class="c"/><polygon points="353.8 247.6 353.8 418.6 320 418.6 286.2 333.1 320 247.6 " fill="#FFE1AA"/><rect x="158.2" y="247.6" width="161.8" height="171" fill="#FFF5E3"/><path d="M312.3 356.9c-2.3 0-4.6-0.9-6.2-2.7l-21.9-23.9 -21.9 23.9c-1.6 1.7-3.9 2.7-6.2 2.7 -2.4 0-4.6-1-6.2-2.7l-21.9-23.9 -21.9 23.9c-3.1 3.4-8.5 3.7-11.9 0.5 -3.4-3.1-3.7-8.5-0.5-11.9l28.1-30.7c1.6-1.7 3.9-2.7 6.2-2.7s4.6 1 6.2 2.7l21.9 23.9 21.9-23.9c1.6-1.7 3.9-2.7 6.2-2.7 2.4 0 4.6 1 6.2 2.7l28.1 30.7c3.2 3.4 2.9 8.8-0.5 11.9C316.3 356.1 314.3 356.9 312.3 356.9z" class="a"/></svg>