<svg xmlns="http://www.w3.org/2000/svg" viewBox="0 0 512 512"><style>.a{fill:#AB5034;}.b{fill:#7C9554;}.c{fill:#AD712C;}.d{fill:#D5A150;}</style><path d="M470.7 291.9H39.7c-14.2 0-25.8 11.5-25.8 25.8v11.6c0 14.2 11.5 25.8 25.8 25.8h431c14.2 0 25.8-11.5 25.8-25.8v-11.6C496.4 303.5 484.9 291.9 470.7 291.9z" class="a"/><path d="M13.9 317.7v11.6c0 0.2 0 0.4 0 0.5h406.9c19 0 34.4-14.1 34.4-31.5 0-2.2-0.2-4.3-0.7-6.3H39.7C25.4 291.9 13.9 303.5 13.9 317.7z" fill="#BD7155"/><path d="M396.8 229.1H115.3c-40.7 0-79.5 15.8-106.7 43.5l-0.1 0.1c-5 5.1-4.1 13 2 17.1l0.1 0.1c4.5 3 10.6 5.3 17.6 6.3 6.9 1 14.5 0.8 21.6-1 6.6-1.6 12.2-2.1 16.9-0.9 4.7 1.1 8.1 3.9 10.9 8.2 1.5 2.3 3.4 4.4 5.7 6.3 0.3 0.2 0.6 0.5 0.8 0.7l0.7 0.7c0.5 0.4 0.9 0.8 1.4 1.2 1 0.8 2 1.5 3 2.2 4.1 2.7 8.7 4.5 13.4 5.3 9.4 1.5 19.3-1 27.1-7.8 3.6-3.1 8.1-4.6 12.7-4.1 4.6 0.5 8.8 2.9 11.8 6.8 6.5 8.4 15.7 13 25.1 13.7 9.4 0.6 19-2.7 26.4-10.1 3.4-3.4 7.8-5.2 12.4-5.1 4.6 0.2 8.9 2.2 12.2 5.9 7 7.9 16.4 11.9 25.8 11.9 9.4 0 18.8-4 25.8-11.9 3.2-3.6 7.5-5.7 12.2-5.9 4.6-0.2 9 1.6 12.4 5.1 7.4 7.4 17 10.8 26.4 10.1 9.4-0.6 18.6-5.3 25.1-13.7 3-3.9 7.2-6.3 11.8-6.8 4.6-0.5 9.1 0.9 12.7 4.1 7.8 6.8 17.7 9.3 27.1 7.8 4.7-0.8 9.3-2.5 13.4-5.3 1-0.7 2-1.4 3-2.2 0.5-0.4 1-0.8 1.4-1.2l0.7-0.7c0.2-0.2 0.6-0.5 0.8-0.7 2.3-1.9 4.2-4 5.7-6.3 2.8-4.2 6.2-7 10.9-8.2 4.7-1.1 10.3-0.7 16.9 0.9 7.1 1.8 14.6 2 21.6 1 6.9-1 13.1-3.3 17.6-6.3l0 0c6.1-4.1 7.1-12.1 2-17.3l0 0C476.2 244.9 437.4 229.1 396.8 229.1z" class="b"/><path d="M470.7 217.5H39.7c-14.2 0-25.8 11.5-25.8 25.8v11.6c0 14.2 11.5 25.8 25.8 25.8h431c14.2 0 25.8-11.5 25.8-25.8V243.3C496.4 229.1 484.9 217.5 470.7 217.5z" class="a"/><path d="M13.9 243.3v11.6c0 0.2 0 0.4 0 0.5h406.9c19 0 34.4-14.1 34.4-31.5 0-2.2-0.2-4.3-0.7-6.3H39.7C25.4 217.5 13.9 229.1 13.9 243.3z" fill="#CE9276"/><path d="M8.3 210c1.5 0.6-13.5-3.9 238.2 69.3 5.9 1.7 13.1 1.7 19.1 0 249.1-72.4 237.6-68.9 240.3-70.2 9.4-4.6 8-13-4-16.5l-207.9-60.4c-23.6-6.9-52.4-6.9-76 0l-207.9 60.4C-2.6 196.3-3.4 205.6 8.3 210z" fill="#EBD37A"/><path d="M510.7 197.8c-2.1-2.9-5.9-3.9-9.3-2.9 -16.7 4.9-40.6 11.8-74.7 21.7 -39.2 11.4-92.3 26.8-164.1 47.7 -4 1.2-9.4 1.2-13.3 0 -78.9-22.9-135-39.2-175-50.9 -28.6-8.3-49-14.2-63.6-18.5 -3.5-1-7.5 0.2-9.5 3.3 -2.7 4.1-0.4 9 7.2 11.8 1.5 0.6-13.5-3.9 238.2 69.3 5.9 1.7 13.1 1.7 19.1 0 249.1-72.4 237.6-68.9 240.3-70.2C511.9 206.2 513.5 201.6 510.7 197.8z" fill="#D9B43A"/><path d="M396.8 128.2H115.3c-40.7 0-79.5 15.8-106.7 43.5l-0.1 0.1c-5 5.1-4.1 13 2 17.1l0.1 0.1c4.5 3 10.6 5.3 17.6 6.3 6.9 1 14.5 0.8 21.6-1 6.6-1.6 12.2-2.1 16.9-0.9 4.7 1.1 8.1 3.9 10.9 8.2 1.5 2.3 3.4 4.4 5.7 6.3 0.3 0.2 0.6 0.5 0.8 0.7l0.7 0.7c0.5 0.4 0.9 0.8 1.4 1.2 1 0.8 2 1.5 3 2.2 4.1 2.7 8.7 4.5 13.4 5.3 9.4 1.5 19.3-1 27.1-7.8 3.6-3.1 8.1-4.6 12.7-4.1 4.6 0.5 8.8 2.9 11.8 6.8 6.5 8.4 15.7 13 25.1 13.7 9.4 0.6 19-2.7 26.4-10.1 3.4-3.4 7.8-5.2 12.4-5.1 4.6 0.2 8.9 2.2 12.2 5.9 7 7.9 16.4 11.9 25.8 11.9 9.4 0 18.8-4 25.8-11.9 3.2-3.6 7.5-5.7 12.2-5.9 4.6-0.2 9 1.6 12.4 5.1 7.4 7.4 17 10.8 26.4 10.1 9.4-0.6 18.6-5.3 25.1-13.7 3-3.9 7.2-6.3 11.8-6.8 4.6-0.5 9.1 0.9 12.7 4.1 7.8 6.8 17.7 9.3 27.1 7.8 4.7-0.8 9.3-2.5 13.4-5.3 1-0.7 2-1.4 3-2.2 0.5-0.4 1-0.8 1.4-1.2l0.7-0.7c0.2-0.2 0.6-0.5 0.8-0.7 2.3-1.9 4.2-4 5.7-6.3 2.8-4.2 6.2-7 10.9-8.2 4.7-1.1 10.3-0.7 16.9 0.9 7.1 1.8 14.6 2 21.6 1 6.9-1 13.1-3.3 17.6-6.3l0 0c6.1-4.1 7.1-12.1 2-17.3l0 0C476.2 144 437.4 128.2 396.8 128.2z" class="b"/><path d="M472.3 95.2H256l-20.6 41.2 20.6 20.6h216.3c5.7 0 10.3-4.6 10.3-10.3v-41.2C482.6 99.8 478 95.2 472.3 95.2z" class="c"/><path d="M39.7 95.2c-5.7 0-10.3 4.6-10.3 10.3v41.2c0 5.7 4.6 10.3 10.3 10.3h216.3V95.2C256 95.2 39.7 95.2 39.7 95.2z" class="d"/><path d="M472.3 355H256l-20.6 41.2 20.6 20.6h216.3c5.7 0 10.3-4.6 10.3-10.3v-41.2C482.6 359.6 478 355 472.3 355z" class="c"/><path d="M39.7 355c-5.7 0-10.3 4.6-10.3 10.3v41.2c0 5.7 4.6 10.3 10.3 10.3h216.3v-61.8H39.7z" class="d"/></svg>