<?xml version="1.0" encoding="iso-8859-1"?>
<!-- Generator: Adobe Illustrator 19.0.0, SVG Export Plug-In . SVG Version: 6.00 Build 0)  -->
<svg version="1.1" id="Capa_1" xmlns="http://www.w3.org/2000/svg" xmlns:xlink="http://www.w3.org/1999/xlink" x="0px" y="0px"
	 viewBox="0 0 512 512" style="enable-background:new 0 0 512 512;" xml:space="preserve">
<path style="fill:#AB5034;" d="M470.676,291.942H39.658c-14.224,0-25.755,11.531-25.755,25.755v11.564
	c0,14.224,11.531,25.755,25.755,25.755h431.019c14.224,0,25.755-11.531,25.755-25.755v-11.564
	C496.431,303.473,484.9,291.942,470.676,291.942z"/>
<path style="fill:#BD7155;" d="M13.903,317.697v11.564c0,0.176,0.01,0.35,0.013,0.525h406.916c18.978,0,34.363-14.12,34.363-31.537
	c0-2.16-0.238-4.269-0.688-6.308H39.658C25.434,291.942,13.903,303.473,13.903,317.697z"/>
<path style="fill:#7C9554;" d="M396.759,229.099H115.315c-40.68,0-79.454,15.822-106.704,43.541l-0.112,0.114
	c-5.006,5.092-4.091,13.045,1.965,17.064l0.136,0.091c4.482,3.015,10.646,5.33,17.576,6.348c6.927,1.026,14.5,0.772,21.573-0.992
	c6.576-1.598,12.244-2.082,16.913-0.94c4.674,1.138,8.105,3.933,10.873,8.152c1.489,2.301,3.389,4.394,5.662,6.334
	c0.272,0.239,0.6,0.488,0.842,0.712l0.694,0.651c0.468,0.428,0.944,0.841,1.429,1.24c0.969,0.798,1.973,1.549,3.005,2.224
	c4.128,2.736,8.712,4.498,13.416,5.273c9.414,1.525,19.279-0.996,27.1-7.797c3.625-3.147,8.13-4.582,12.739-4.082
	c4.608,0.507,8.783,2.903,11.798,6.772c6.508,8.376,15.695,13.023,25.1,13.665c9.406,0.647,19.001-2.72,26.361-10.125
	c3.41-3.426,7.815-5.221,12.442-5.069c4.626,0.15,8.933,2.227,12.157,5.876c6.965,7.879,16.357,11.868,25.758,11.866
	c9.402,0.002,18.792-3.987,25.756-11.865c3.226-3.65,7.532-5.727,12.158-5.877c4.626-0.152,9.032,1.642,12.441,5.068
	c7.361,7.406,16.956,10.773,26.362,10.126c9.406-0.642,18.592-5.289,25.099-13.664c3.015-3.869,7.191-6.266,11.799-6.773
	c4.608-0.501,9.113,0.934,12.737,4.081c7.824,6.801,17.689,9.322,27.104,7.797c4.704-0.775,9.288-2.536,13.416-5.273
	c1.032-0.675,2.036-1.426,3.005-2.224c0.485-0.4,0.961-0.814,1.429-1.24l0.694-0.651c0.241-0.224,0.57-0.473,0.841-0.712
	c2.272-1.939,4.173-4.032,5.661-6.333c2.769-4.22,6.2-7.015,10.874-8.153c4.669-1.141,10.337-0.658,16.911,0.94
	c7.074,1.764,14.647,2.017,21.576,0.992c6.93-1.019,13.094-3.333,17.576-6.348l0,0c6.128-4.068,7.054-12.115,1.987-17.268l0,0
	C476.213,244.921,437.439,229.099,396.759,229.099z"/>
<path style="fill:#AB5034;" d="M470.676,217.535H39.658c-14.224,0-25.755,11.531-25.755,25.755v11.564
	c0,14.224,11.531,25.755,25.755,25.755h431.019c14.224,0,25.755-11.531,25.755-25.755V243.29
	C496.431,229.066,484.9,217.535,470.676,217.535z"/>
<path style="fill:#CE9276;" d="M13.903,243.29v11.564c0,0.176,0.01,0.35,0.013,0.525h406.916c18.978,0,34.363-14.12,34.363-31.537
	c0-2.16-0.238-4.269-0.688-6.308H39.658C25.434,217.535,13.903,229.066,13.903,243.29z"/>
<path style="fill:#EBD37A;" d="M8.252,209.999c1.545,0.572-13.542-3.858,238.22,69.317c5.928,1.723,13.131,1.723,19.059,0
	c249.091-72.399,237.637-68.893,240.315-70.21c9.362-4.586,8.046-13.03-3.97-16.522l-207.876-60.419
	c-23.639-6.87-52.359-6.87-75.998,0l-207.875,60.42C-2.629,196.292-3.424,205.649,8.252,209.999z"/>
<path style="fill:#D9B43A;" d="M510.655,197.826c-2.117-2.859-5.911-3.924-9.327-2.93c-16.661,4.851-40.593,11.801-74.681,21.7
	c-39.202,11.385-92.258,26.793-164.133,47.684c-3.991,1.159-9.355,1.159-13.344,0c-78.852-22.918-134.994-39.232-174.982-50.852
	c-28.588-8.308-49.026-14.247-63.6-18.484c-3.539-1.029-7.482,0.178-9.506,3.258c-2.699,4.109-0.356,8.993,7.168,11.797
	c1.545,0.572-13.542-3.858,238.22,69.317c5.928,1.723,13.131,1.723,19.059,0c249.092-72.398,237.637-68.893,240.316-70.21
	C511.862,206.16,513.466,201.621,510.655,197.826z"/>
<path style="fill:#7C9554;" d="M396.759,128.182H115.315c-40.68,0-79.454,15.822-106.704,43.541l-0.112,0.114
	c-5.006,5.092-4.091,13.045,1.965,17.064l0.136,0.091c4.482,3.015,10.646,5.33,17.576,6.348c6.927,1.025,14.5,0.772,21.573-0.992
	c6.576-1.598,12.244-2.082,16.913-0.94c4.674,1.138,8.105,3.933,10.873,8.152c1.489,2.301,3.389,4.394,5.662,6.334
	c0.272,0.239,0.6,0.488,0.842,0.712l0.694,0.651c0.468,0.428,0.944,0.841,1.429,1.24c0.969,0.798,1.973,1.549,3.005,2.224
	c4.128,2.736,8.712,4.498,13.416,5.273c9.414,1.525,19.279-0.996,27.1-7.797c3.625-3.147,8.13-4.582,12.739-4.082
	c4.608,0.507,8.783,2.903,11.798,6.772c6.508,8.376,15.695,13.023,25.1,13.665c9.406,0.647,19.001-2.72,26.361-10.125
	c3.41-3.426,7.815-5.221,12.442-5.069c4.626,0.15,8.933,2.227,12.157,5.876c6.965,7.879,16.357,11.868,25.758,11.866
	c9.402,0.002,18.792-3.987,25.756-11.865c3.226-3.65,7.532-5.727,12.158-5.877c4.626-0.152,9.032,1.642,12.441,5.068
	c7.361,7.406,16.956,10.773,26.362,10.126c9.406-0.642,18.592-5.289,25.099-13.664c3.015-3.869,7.191-6.266,11.799-6.773
	c4.608-0.501,9.113,0.934,12.737,4.081c7.824,6.801,17.689,9.322,27.104,7.797c4.704-0.775,9.288-2.536,13.416-5.273
	c1.032-0.675,2.036-1.426,3.005-2.224c0.485-0.4,0.961-0.814,1.429-1.24l0.694-0.651c0.241-0.224,0.57-0.473,0.841-0.712
	c2.272-1.939,4.173-4.032,5.661-6.333c2.769-4.22,6.2-7.015,10.874-8.153c4.669-1.142,10.337-0.658,16.911,0.94
	c7.074,1.764,14.647,2.017,21.576,0.992c6.93-1.019,13.094-3.333,17.576-6.348l0,0c6.128-4.068,7.054-12.115,1.987-17.268l0,0
	C476.213,144.004,437.439,128.182,396.759,128.182z"/>
<path style="fill:#AD712C;" d="M472.343,95.173H256.001l-20.604,41.208l20.604,20.604h216.342c5.69,0,10.302-4.612,10.302-10.302
	v-41.208C482.645,99.785,478.033,95.173,472.343,95.173z"/>
<path style="fill:#D5A150;" d="M39.658,95.173c-5.69,0-10.302,4.612-10.302,10.302v41.208c0,5.69,4.612,10.302,10.302,10.302
	h216.342V95.173C256.001,95.173,39.658,95.173,39.658,95.173z"/>
<path style="fill:#AD712C;" d="M472.343,355.015H256.001l-20.604,41.208l20.604,20.604h216.342c5.69,0,10.302-4.612,10.302-10.302
	v-41.208C482.645,359.627,478.033,355.015,472.343,355.015z"/>
<path style="fill:#D5A150;" d="M39.658,355.015c-5.69,0-10.302,4.612-10.302,10.302v41.208c0,5.69,4.612,10.302,10.302,10.302
	h216.342v-61.812H39.658z"/>
<g>
</g>
<g>
</g>
<g>
</g>
<g>
</g>
<g>
</g>
<g>
</g>
<g>
</g>
<g>
</g>
<g>
</g>
<g>
</g>
<g>
</g>
<g>
</g>
<g>
</g>
<g>
</g>
<g>
</g>
</svg>
