<svg xmlns="http://www.w3.org/2000/svg" viewBox="0 0 512 512"><style>.a{fill:#FFCE54;}.b{fill:#434A54;}.c{fill:#656D78;}</style><polygon points="21.3 256 21.3 341.3 42.7 448 42.7 512 149.3 512 149.4 448.1 170.7 341.3 170.7 256 " fill="#E6E9ED"/><polygon points="25.6 362.6 42.7 448 42.7 512 149.3 512 149.4 448.1 166.4 362.6 " class="a"/><rect x="245.3" y="67.7" width="21.3" height="51.6" class="b"/><path d="M160 74.7c0-5.9-4.8-10.7-10.7-10.7l0 0H96l0 0 0 0c-5.9 0-10.7 4.8-10.7 10.7 0 5.9 4.8 10.7 10.7 10.7l0 0 0 0h42.7v40.9h21.3V74.7L160 74.7z" class="b"/><path d="M128 309.3c0 5.9-4.8 10.7-10.7 10.7 -5.9 0-10.7-4.8-10.7-10.7s4.8-10.7 10.7-10.7C123.2 298.6 128 303.4 128 309.3z" class="a"/><path d="M128 341.3c0 5.9-4.8 10.7-10.7 10.7 -5.9 0-10.7-4.8-10.7-10.7 0-5.9 4.8-10.7 10.7-10.7C123.2 330.6 128 335.4 128 341.3z" class="a"/><polygon points="149.3 256 149.3 341.3 128 448.1 128 512 149.3 512 149.4 448.1 170.7 341.3 170.7 256 " style="fill:#FFF;opacity:0.2"/><path d="M149.4 222.9l-20.6-5.5 -15.5 57.8 0 0c-0.2 0.9-0.4 1.8-0.4 2.8 0 5.9 4.8 10.7 10.7 10.7 4.9 0 9.1-3.4 10.3-7.9h0L149.4 222.9z" fill="#CCD1D9"/><polygon points="168.5 234.2 106.7 217.6 133 119.3 194.8 135.9 " class="b"/><path d="M96 106.7c-17.7 0-32 14.4-32 32 0 17.6 14.3 31.9 32 31.9l138.7 0.1v-64C234.7 106.7 96 106.7 96 106.7z" class="c"/><path d="M277.3 106.7h-64v64c200.2 42.7 64 341.3 64 341.3h170.7C448 512 502.2 138.7 277.3 106.7z" fill="#ED5564"/><rect x="256" y="448" width="234.7" height="64" class="b"/><path d="M256 74.7c-17.6 0-32-14.3-32-32 0-17.6 14.4-32 32-32 17.6 0 32 14.4 32 32C288 60.3 273.6 74.7 256 74.7z" class="a"/><path d="M256 0c-23.6 0-42.7 19.1-42.7 42.7 0 23.6 19.1 42.7 42.7 42.7s42.7-19.1 42.7-42.7C298.7 19.1 279.6 0 256 0zM256 64c-11.8 0-21.3-9.6-21.3-21.3 0-11.7 9.6-21.3 21.3-21.3 11.8 0 21.3 9.6 21.3 21.3C277.3 54.4 267.8 64 256 64z" class="c"/><path d="M160 501.3c0-5.9-4.8-10.7-10.7-10.7l0 0H42.7l0 0 0 0c-5.9 0-10.7 4.8-10.7 10.7s4.8 10.7 10.7 10.7l0 0 0 0h106.7l0 0C155.2 512 160 507.2 160 501.3z" fill="#F6BB42"/></svg>