<svg xmlns="http://www.w3.org/2000/svg" viewBox="0 0 496 496"><style>.a{fill:#868491;}.b{fill:#B4B6BC;}</style><path d="M472 116.1H24c-13.2 0-24 10.8-24 24v264c0 13.2 10.8 24 24 24h448c13.2 0 24-10.8 24-24v-264C496 126.8 485.2 116.1 472 116.1z" fill="#FF4F19"/><rect x="224" y="388.1" width="48" height="40" fill="#E3001E"/><path d="M464.2 364.1v24c0 4.4-3.6 8-8 8h-416c-4.4 0-8-3.6-8-8v-24l47.8-24 192 8 160-8L464.2 364.1z" fill="#E6BE8A"/><path d="M43.4 375.1c65.7-27.1 140.1-25.5 204.8 5v-288C181.4 60.6 104.3 59.9 37 89.9c-2.9 1.3-4.8 4.2-4.8 7.4v270.5C32.2 373.6 38.1 377.3 43.4 375.1z" fill="#FFEBB7"/><path d="M248.2 380.1c64.7-30.4 139-32.1 204.8-5 5.3 2.2 11.2-1.5 11.2-7.3V97.3c0-3.2-1.9-6.1-4.8-7.4 -67.3-30-144.4-29.3-211.2 2.2V380.1z" fill="#FFD788"/><path d="M280.2 327.8c-3.4 0-6.6-2.2-7.6-5.6 -1.3-4.2 1-8.7 5.2-10 8.1-2.5 16.4-4.7 24.8-6.5 4.3-0.9 8.6 1.9 9.5 6.2 0.9 4.3-1.9 8.6-6.2 9.5 -7.8 1.6-15.6 3.7-23.2 6.1C281.8 327.7 281 327.8 280.2 327.8z" class="a"/><path d="M432.2 327.8c-0.8 0-1.6-0.1-2.4-0.4 -30.2-9.5-61.5-13-93-10.5 -4.5 0.3-8.3-2.9-8.6-7.3 -0.3-4.4 2.9-8.3 7.3-8.6 33.6-2.6 66.9 1.1 99 11.2 4.2 1.3 6.6 5.8 5.2 10C438.8 325.6 435.6 327.8 432.2 327.8z" class="a"/><path d="M432.2 295.7c-0.8 0-1.6-0.1-2.4-0.4 -48.2-15.1-99-15.1-147.2 0 -4.2 1.3-8.7-1-10-5.2 -1.3-4.2 1-8.7 5.2-10 51.3-16.1 105.5-16.1 156.8 0 4.2 1.3 6.6 5.8 5.2 10C438.8 293.5 435.6 295.7 432.2 295.7z" class="a"/><path d="M280.2 263.8c-3.4 0-6.6-2.2-7.6-5.6 -1.3-4.2 1-8.7 5.2-10 29.4-9.2 60-13.2 90.8-11.7 4.4 0.2 7.8 4 7.6 8.4 -0.2 4.4-3.9 7.8-8.4 7.6 -28.9-1.4-57.6 2.3-85.2 11C281.8 263.7 281 263.8 280.2 263.8z" class="a"/><path d="M432.2 263.8c-0.8 0-1.6-0.1-2.4-0.4 -10.1-3.2-20.5-5.7-31-7.6 -4.4-0.8-7.3-4.9-6.5-9.3 0.8-4.3 4.9-7.3 9.3-6.5 11.1 2 22.2 4.7 33 8.1 4.2 1.3 6.6 5.8 5.2 10C438.8 261.6 435.6 263.8 432.2 263.8z" class="a"/><path d="M432.2 231.7c-0.8 0-1.6-0.1-2.4-0.4 -48.2-15.1-99-15.1-147.2 0 -4.2 1.3-8.7-1-10-5.2 -1.3-4.2 1-8.7 5.2-10 51.3-16.1 105.5-16.1 156.8 0 4.2 1.3 6.6 5.8 5.2 10C438.8 229.5 435.6 231.7 432.2 231.7z" class="a"/><path d="M280.2 199.7c-3.4 0-6.6-2.2-7.6-5.6 -1.3-4.2 1-8.7 5.2-10 16.1-5.1 32.8-8.6 49.5-10.4 4.5-0.5 8.4 2.7 8.8 7.1 0.5 4.4-2.7 8.3-7.1 8.8 -15.7 1.8-31.4 5-46.5 9.8C281.8 199.6 281 199.7 280.2 199.7z" class="a"/><path d="M432.2 199.7c-0.8 0-1.6-0.1-2.4-0.4 -22.6-7.1-46-10.9-69.7-11.3 -4.4-0.1-7.9-3.7-7.9-8.1 0.1-4.4 3.9-8.1 8.1-7.9 25.2 0.4 50.2 4.4 74.3 12 4.2 1.3 6.6 5.8 5.2 10C438.8 197.5 435.6 199.7 432.2 199.7z" class="a"/><path d="M280.2 167.8c-3.4 0-6.6-2.2-7.6-5.6 -1.3-4.2 1-8.7 5.2-10 34.9-10.9 70.9-14.5 107.3-10.4 4.4 0.5 7.6 4.4 7.1 8.8 -0.5 4.4-4.4 7.6-8.8 7.1 -34.1-3.8-68-0.5-100.7 9.8C281.8 167.7 281 167.8 280.2 167.8z" class="a"/><path d="M432.2 167.8c-0.8 0-1.6-0.1-2.4-0.4 -5.1-1.6-10.3-3-15.5-4.3 -4.3-1-6.9-5.4-5.9-9.7s5.3-6.9 9.7-5.9c5.5 1.4 11.1 2.9 16.5 4.6 4.2 1.3 6.6 5.8 5.2 10C438.8 165.6 435.6 167.8 432.2 167.8z" class="a"/><path d="M280.2 135.7c-3.4 0-6.6-2.2-7.6-5.6 -1.3-4.2 1-8.7 5.2-10 5.5-1.7 11-3.3 16.5-4.6 4.3-1.1 8.6 1.6 9.7 5.9 1 4.3-1.6 8.6-5.9 9.7 -5.1 1.2-10.3 2.7-15.5 4.3C281.8 135.6 281 135.7 280.2 135.7z" class="a"/><path d="M432.2 135.7c-0.8 0-1.6-0.1-2.4-0.4 -32.7-10.3-66.6-13.6-100.7-9.8 -4.4 0.5-8.4-2.7-8.8-7.1 -0.5-4.4 2.7-8.3 7.1-8.8 36.3-4 72.4-0.5 107.3 10.4 4.2 1.3 6.6 5.8 5.2 10C438.8 133.5 435.6 135.7 432.2 135.7z" class="a"/><path d="M64.2 327.8c-3.4 0-6.6-2.2-7.6-5.6 -1.3-4.2 1-8.7 5.2-10 8.1-2.5 16.4-4.7 24.8-6.5 4.3-0.9 8.6 1.9 9.5 6.2 0.9 4.3-1.9 8.6-6.2 9.5 -7.8 1.6-15.6 3.7-23.2 6.1C65.8 327.7 65 327.8 64.2 327.8z" class="b"/><path d="M216.2 327.8c-0.8 0-1.6-0.1-2.4-0.4 -30.2-9.5-61.5-13-93-10.5 -4.5 0.3-8.3-2.9-8.6-7.3 -0.3-4.4 2.9-8.3 7.3-8.6 33.6-2.6 66.9 1.1 99 11.2 4.2 1.3 6.6 5.8 5.2 10C222.8 325.6 219.6 327.8 216.2 327.8z" class="b"/><path d="M216.2 295.7c-0.8 0-1.6-0.1-2.4-0.4 -48.2-15.1-99-15.1-147.2 0 -4.2 1.3-8.7-1-10-5.2 -1.3-4.2 1-8.7 5.2-10 51.3-16.1 105.5-16.1 156.8 0 4.2 1.3 6.6 5.8 5.2 10C222.8 293.5 219.6 295.7 216.2 295.7z" class="b"/><path d="M64.2 263.8c-3.4 0-6.6-2.2-7.6-5.6 -1.3-4.2 1-8.7 5.2-10 29.4-9.2 60-13.2 90.8-11.7 4.4 0.2 7.8 4 7.6 8.4 -0.2 4.4-3.9 7.8-8.4 7.6 -28.9-1.4-57.6 2.3-85.2 11C65.8 263.7 65 263.8 64.2 263.8z" class="b"/><path d="M216.2 263.8c-0.8 0-1.6-0.1-2.4-0.4 -10.1-3.2-20.5-5.7-31-7.6 -4.4-0.8-7.3-4.9-6.5-9.3 0.8-4.3 4.9-7.3 9.3-6.5 11.1 2 22.2 4.7 33 8.1 4.2 1.3 6.6 5.8 5.2 10C222.8 261.6 219.6 263.8 216.2 263.8z" class="b"/><path d="M64.2 231.7c-3.4 0-6.6-2.2-7.6-5.6 -1.3-4.2 1-8.7 5.2-10 45.5-14.3 94-15.9 140.3-4.6 4.3 1 6.9 5.4 5.9 9.7 -1 4.3-5.4 6.9-9.7 5.9 -43.5-10.6-89-9.1-131.7 4.3C65.8 231.6 65 231.7 64.2 231.7z" class="b"/><path d="M64.2 199.7c-3.4 0-6.6-2.2-7.6-5.6 -1.3-4.2 1-8.7 5.2-10 16.1-5.1 32.8-8.6 49.5-10.4 4.4-0.5 8.4 2.7 8.8 7.1 0.5 4.4-2.7 8.3-7.1 8.8 -15.7 1.8-31.4 5-46.5 9.8C65.8 199.6 65 199.7 64.2 199.7z" class="b"/><path d="M200.2 195.3c-0.6 0-1.3-0.1-1.9-0.2 -17.7-4.3-36-6.7-54.2-6.9 -4.4-0.1-7.9-3.7-7.9-8.1 0.1-4.4 3.5-8.1 8.1-7.9 19.4 0.3 38.9 2.8 57.8 7.4 4.3 1 6.9 5.4 5.9 9.7C207.1 192.8 203.8 195.3 200.2 195.3z" class="b"/><path d="M64.2 167.8c-3.4 0-6.6-2.2-7.6-5.6 -1.3-4.2 1-8.7 5.2-10 34.9-10.9 70.9-14.5 107.3-10.4 4.4 0.5 7.6 4.4 7.1 8.8 -0.5 4.4-4.4 7.6-8.8 7.1 -34.1-3.8-68-0.5-100.7 9.8C65.8 167.7 65 167.8 64.2 167.8z" class="b"/><path d="M64.2 135.7c-3.4 0-6.6-2.2-7.6-5.6 -1.3-4.2 1-8.7 5.2-10 5.5-1.7 11-3.3 16.5-4.6 4.3-1.1 8.6 1.6 9.7 5.9 1 4.3-1.6 8.6-5.9 9.7 -5.1 1.2-10.3 2.7-15.5 4.3C65.8 135.6 65 135.7 64.2 135.7z" class="b"/><path d="M200.2 131.3c-0.6 0-1.3-0.1-1.9-0.2 -28-6.8-56.6-8.6-85.2-5.5 -4.4 0.5-8.4-2.7-8.8-7.1 -0.5-4.4 2.7-8.3 7.1-8.8 30.4-3.4 61-1.4 90.8 5.8 4.3 1 6.9 5.4 5.9 9.7C207.1 128.8 203.8 131.3 200.2 131.3z" class="b"/><path d="M200.2 216.1c0 3.2 3.6 5.1 6.2 3.3l17.8-11.9L242 219.4c2.7 1.8 6.2-0.1 6.2-3.3V92.7c0-3.2-1.8-6.1-4.7-7.4 -12.5-5.5-25.3-10-38.3-13.4 -2.5-0.7-5 1.3-5 3.9L200.2 216.1z" fill="#5D647F"/></svg>