<svg xmlns="http://www.w3.org/2000/svg" viewBox="0 0 512 512"><style>.a{fill:#434A54;}.b{fill:#CCD1D9;}.c{fill:#FC6E51;}.d{fill:#ED5564;}.e{fill:#FFF;opacity:0.1;}</style><rect x="21" y="9" width="473" height="300.4" fill="#965353"/><rect x="10.7" y="341.3" width="490.7" height="170.7" class="a"/><rect x="138.7" y="448.1" width="21.3" height="63.9" class="b"/><rect x="352" y="448.1" width="21.3" height="63.9" class="b"/><path d="M106.7 42.7H85.3c-5.9 0-10.7 4.8-10.7 10.7s4.8 10.7 10.7 10.7v15.1h21.3V64c5.9 0 10.7-4.8 10.7-10.7S112.5 42.7 106.7 42.7z" fill="#37BC9B"/><polygon points="138.7 163.2 53.3 163.2 53.3 106.7 81.8 64 110.2 64 138.7 106.7 " fill="#48CFAD"/><path d="M426.6 42.7h-21.3c-5.9 0-10.7 4.8-10.7 10.7s4.8 10.7 10.7 10.7v15.1h21.3V64c5.9 0 10.7-4.8 10.7-10.7S432.5 42.7 426.6 42.7z" fill="#967ADC"/><path d="M458 128c0-10.6-3.8-20.2-10.1-27.7V85.3l-21.3-21.3h-21.3l-21.3 21.3v15c-6.3 7.4-10.1 17.1-10.1 27.7s3.8 20.2 10.1 27.7h64C454.3 148.2 458 138.6 458 128z" fill="#AC92EB"/><path d="M266.7 42.7h-21.3c-5.9 0-10.7 4.8-10.7 10.7s4.8 10.7 10.7 10.7v15.1h21.3V64c5.9 0 10.7-4.8 10.7-10.7S272.6 42.7 266.7 42.7z" fill="#F6BB42"/><path d="M213.3 192h-21.3c-5.9 0-10.7 4.8-10.7 10.7s4.8 10.7 10.7 10.7v15.1h21.3v-15.1c5.9 0 10.7-4.8 10.7-10.7S219.2 192 213.3 192z" fill="#E9573F"/><rect x="160" y="213.3" width="85.3" height="106.7" class="c"/><rect x="266.7" y="256" width="64" height="64" class="c"/><path d="M293.8 154.9c9.6-9.6 15.5-22.9 15.5-37.6 0-29.5-23.9-53.3-53.3-53.3 -29.5 0-53.3 23.9-53.3 53.3 0 14.7 5.9 28 15.5 37.6H293.8z" fill="#FFCE54"/><path d="M10.7 0v341.3h490.7V0H10.7zM480 21.3v128H32V21.3H480zM32 341.3V170.7h448v170.7H32z" fill="#A85D5D"/><rect x="10.7" y="298.6" width="490.7" height="42.7" fill="#656D78"/><path d="M448 309.3c5.9 0 10.7-4.8 10.7-10.7h-21.3C437.3 304.6 442.1 309.3 448 309.3z" class="a"/><path d="M490.6 309.3c5.9 0 10.7-4.8 10.7-10.7h-21.3C480 304.6 484.8 309.3 490.6 309.3z" class="a"/><path d="M405.3 309.3c5.9 0 10.7-4.8 10.7-10.7h-21.3C394.6 304.6 399.4 309.3 405.3 309.3z" class="a"/><path d="M362.6 309.3c5.9 0 10.7-4.8 10.7-10.7h-21.3C352 304.6 356.8 309.3 362.6 309.3z" class="a"/><path d="M320 309.3c5.9 0 10.7-4.8 10.7-10.7H309.3C309.3 304.6 314.1 309.3 320 309.3z" class="a"/><path d="M277.3 309.3c5.9 0 10.7-4.8 10.7-10.7h-21.3C266.7 304.6 271.4 309.3 277.3 309.3z" class="a"/><path d="M234.7 309.3c5.9 0 10.7-4.8 10.7-10.7h-21.3C224 304.6 228.8 309.3 234.7 309.3z" class="a"/><path d="M192 309.3c5.9 0 10.7-4.8 10.7-10.7h-21.3C181.3 304.6 186.1 309.3 192 309.3z" class="a"/><path d="M149.3 309.3c5.9 0 10.7-4.8 10.7-10.7h-21.3C138.7 304.6 143.4 309.3 149.3 309.3z" class="a"/><path d="M106.7 309.3c5.9 0 10.7-4.8 10.7-10.7H96C96 304.6 100.8 309.3 106.7 309.3z" class="a"/><path d="M64 309.3c5.9 0 10.7-4.8 10.7-10.7H53.3C53.3 304.6 58.1 309.3 64 309.3z" class="a"/><path d="M21.3 309.3c5.9 0 10.7-4.8 10.7-10.7H10.7C10.7 304.6 15.4 309.3 21.3 309.3z" class="a"/><rect x="74.7" y="384" width="149.3" height="64.1" class="d"/><rect x="288" y="384" width="149.3" height="64.1" class="d"/><rect x="74.7" y="384" width="149.3" height="21.3" class="e"/><rect x="288" y="384" width="149.3" height="21.3" class="e"/></svg>