<?xml version="1.0" encoding="iso-8859-1"?>
<!-- Generator: Adobe Illustrator 19.0.0, SVG Export Plug-In . SVG Version: 6.00 Build 0)  -->
<svg version="1.1" id="Capa_1" xmlns="http://www.w3.org/2000/svg" xmlns:xlink="http://www.w3.org/1999/xlink" x="0px" y="0px"
	 viewBox="0 0 409.6 409.6" style="enable-background:new 0 0 409.6 409.6;" xml:space="preserve">
<path style="fill:#EBF0F3;" d="M409.524,174.849L397.553,31.767c-0.877-10.506-9.214-18.843-19.72-19.72L234.751,0.076
	c-6.332-0.534-12.578,1.755-17.073,6.249L6.324,217.679c-8.433,8.433-8.433,22.11,0.002,30.544l155.05,155.05
	c8.435,8.435,22.111,8.435,30.544,0.002l211.355-211.354C407.769,187.428,410.057,181.18,409.524,174.849z"/>
<path style="fill:#E1E6E9;" d="M372.471,40.788c11.139,17.989-7.761,36.888-25.749,25.748c-1.472-0.912-2.747-2.186-3.659-3.659
	c-11.139-17.988,7.76-36.887,25.748-25.748C370.284,38.041,371.559,39.316,372.471,40.788z"/>
<path style="fill:#FFFFFF;" d="M258.089,165.124c-38.008-46.364-108.335-46.364-146.343,0.001
	c-28.126,34.309-28.126,84.809,0,119.117c38.009,46.364,108.335,46.364,146.343,0C286.215,249.933,286.215,199.433,258.089,165.124z
	"/>
<polygon style="fill:#E56353;" points="215.764,161.197 184.917,192.045 154.071,161.197 121.434,193.835 152.281,224.682 
	121.432,255.53 154.071,288.168 184.919,257.32 215.766,288.166 248.403,255.53 217.557,224.683 248.403,193.836 "/>
<g>
</g>
<g>
</g>
<g>
</g>
<g>
</g>
<g>
</g>
<g>
</g>
<g>
</g>
<g>
</g>
<g>
</g>
<g>
</g>
<g>
</g>
<g>
</g>
<g>
</g>
<g>
</g>
<g>
</g>
</svg>
