<svg xmlns="http://www.w3.org/2000/svg" viewBox="0 0 409.6 409.6"><path d="M409.5 174.8L397.6 31.8c-0.9-10.5-9.2-18.8-19.7-19.7L234.8 0.1c-6.3-0.5-12.6 1.8-17.1 6.2L6.3 217.7c-8.4 8.4-8.4 22.1 0 30.5l155.1 155.1c8.4 8.4 22.1 8.4 30.5 0l211.4-211.4C407.8 187.4 410.1 181.2 409.5 174.8z" fill="#EBF0F3"/><path d="M372.5 40.8c11.1 18-7.8 36.9-25.7 25.7 -1.5-0.9-2.7-2.2-3.7-3.7 -11.1-18 7.8-36.9 25.7-25.7C370.3 38 371.6 39.3 372.5 40.8z" fill="#E1E6E9"/><path d="M258.1 165.1c-38-46.4-108.3-46.4-146.3 0 -28.1 34.3-28.1 84.8 0 119.1 38 46.4 108.3 46.4 146.3 0C286.2 249.9 286.2 199.4 258.1 165.1z" fill="#FFF"/><polygon points="215.8 161.2 184.9 192 154.1 161.2 121.4 193.8 152.3 224.7 121.4 255.5 154.1 288.2 184.9 257.3 215.8 288.2 248.4 255.5 217.6 224.7 248.4 193.8 " fill="#E56353"/></svg>