<svg xmlns="http://www.w3.org/2000/svg" viewBox="0 0 58 58"><style>.a{fill:#556080;}</style><rect x="9" y="17.5" width="48" height="24" fill="#D1D4D1"/><path d="M58 42.5H8v-26h50V42.5zM10 40.5h46v-22H10V40.5z" class="a"/><path d="M9 9.5H4c-0.6 0-1-0.4-1-1s0.4-1 1-1h5c0.6 0 1 0.4 1 1S9.6 9.5 9 9.5z" class="a"/><path d="M9 18.5c-0.6 0-1-0.4-1-1v-9c0-0.6 0.4-1 1-1s1 0.4 1 1v9C10 18.1 9.6 18.5 9 18.5z" class="a"/><path d="M9 49.5c-0.6 0-1-0.4-1-1v-7c0-0.6 0.4-1 1-1s1 0.4 1 1v7C10 49.1 9.6 49.5 9 49.5z" class="a"/><circle cx="19" cy="53.5" r="4" class="a"/><circle cx="43" cy="53.5" r="4" class="a"/><path d="M52 49.5H9c-0.6 0-1-0.4-1-1s0.4-1 1-1h43c0.6 0 1 0.4 1 1S52.6 49.5 52 49.5z" class="a"/><path d="M57 26.5H9c-0.6 0-1-0.4-1-1s0.4-1 1-1h48c0.6 0 1 0.4 1 1S57.6 26.5 57 26.5z" class="a"/><path d="M57 34.5H9c-0.6 0-1-0.4-1-1s0.4-1 1-1h48c0.6 0 1 0.4 1 1S57.6 34.5 57 34.5z" class="a"/><path d="M17 42.5c-0.6 0-1-0.4-1-1v-24c0-0.6 0.4-1 1-1s1 0.4 1 1v24C18 42.1 17.6 42.5 17 42.5z" class="a"/><path d="M25 42.5c-0.6 0-1-0.4-1-1v-24c0-0.6 0.4-1 1-1s1 0.4 1 1v24C26 42.1 25.6 42.5 25 42.5z" class="a"/><path d="M33 42.5c-0.6 0-1-0.4-1-1v-24c0-0.6 0.4-1 1-1s1 0.4 1 1v24C34 42.1 33.6 42.5 33 42.5z" class="a"/><path d="M41 42.5c-0.6 0-1-0.4-1-1v-24c0-0.6 0.4-1 1-1s1 0.4 1 1v24C42 42.1 41.6 42.5 41 42.5z" class="a"/><path d="M49 42.5c-0.6 0-1-0.4-1-1v-24c0-0.6 0.4-1 1-1s1 0.4 1 1v24C50 42.1 49.6 42.5 49 42.5z" class="a"/><circle cx="3" cy="8.5" r="3" fill="#D8625E"/><rect x="14" y="8.5" width="14" height="8" fill="#F0C419"/><rect x="28" y="0.5" width="16" height="16" fill="#8697CB"/><rect x="44" y="3.5" width="10" height="13" fill="#FB7B76"/></svg>