<svg xmlns="http://www.w3.org/2000/svg" viewBox="0 0 503.3 503.3"><style>.a{fill:#805333;}.b{fill:#E4C05C;}.c{fill:#BE9819;}</style><polygon points="0 295.1 503.3 295.1 503.3 243 0 243 " class="a"/><path d="M179.2 125.8c-11.4 8.2-25.3 13-40.3 13 -15 0-29-4.9-40.3-13 -17.6 12.6-29.1 33.2-29.1 56.4v60.7h138.8v-60.7C208.3 159 196.8 138.4 179.2 125.8" fill="#E9866F"/><path d="M190.9 52.1c0 28.8-23.3 52.1-52.1 52.1S86.8 80.8 86.8 52.1 110.1 0 138.9 0 190.9 23.3 190.9 52.1" fill="#FDC693"/><polygon points="338.4 216.9 425.2 216.9 425.2 182.2 338.4 182.2 " fill="#BDC3C7"/><path d="M433.9 182.2H329.8c0-28.8 23.3-52.1 52.1-52.1l0 0C410.6 130.2 433.9 153.5 433.9 182.2" class="b"/><polygon points="329.8 243 433.9 243 433.9 216.9 329.8 216.9 " fill="#556080"/><path d="M477.3 503.3H26c-9.6 0-17.4-7.8-17.4-17.4V295.1h486v190.9C494.6 495.6 486.9 503.3 477.3 503.3" fill="#CB8252"/><polygon points="138.9 208.3 112.8 164.9 138.9 138.8 164.9 164.9 " class="b"/><path d="M312.4 399.2c0-38.3-31.1-69.4-69.4-69.4s-69.4 31.1-69.4 69.4 31.1 69.4 69.4 69.4S312.4 437.5 312.4 399.2" fill="#F0C419"/><path d="M243 442.6c-23.9 0-43.4-19.5-43.4-43.4 0-4.8 3.9-8.7 8.7-8.7s8.7 3.9 8.7 8.7c0 14.4 11.7 26 26 26 4.8 0 8.7 3.9 8.7 8.7S247.8 442.6 243 442.6" class="c"/><path d="M277.7 407.9c-4.8 0-8.7-3.9-8.7-8.7 0-14.4-11.7-26-26-26 -4.8 0-8.7-3.9-8.7-8.7s3.9-8.7 8.7-8.7c23.9 0 43.4 19.5 43.4 43.4C286.4 404 282.5 407.9 277.7 407.9" class="c"/><path d="M433.9 425.2c-4.8 0-8.7 3.9-8.7 8.7s3.9 8.7 8.7 8.7h60.7V425.2H433.9z" class="a"/><path d="M433.9 459.9c-4.8 0-8.7 3.9-8.7 8.7s3.9 8.7 8.7 8.7h60.7v-17.4H433.9z" class="a"/><path d="M69.4 442.6c4.8 0 8.7-3.9 8.7-8.7s-3.9-8.7-8.7-8.7H8.7v17.4H69.4z" class="a"/><path d="M69.4 477.3c4.8 0 8.7-3.9 8.7-8.7s-3.9-8.7-8.7-8.7H8.7v17.4H69.4z" class="a"/></svg>