<svg xmlns="http://www.w3.org/2000/svg" viewBox="0 0 469.5 469.5"><style>.a{fill:#E09B00;}.b{fill:#EFB600;}.c{fill:#DB8C00;}.d{fill:#2D2612;}.e{fill:#443B23;}.f{fill:#D15400;}</style><path d="M423.8 304.7c0 83.7-84.6 110.7-189 110.7S45.7 388.4 45.7 304.7c0-83.7 84.6-151.6 189-151.6S423.8 220.9 423.8 304.7z" class="a"/><path d="M45.7 304.7c0-83.7 84.6-151.6 189-151.6" class="b"/><path d="M234.7 153.1c104.4 0 189 67.8 189 151.6 0 83.7-84.6 110.7-189 110.7" class="c"/><path d="M234.7 153.1c104.4 0 189 67.8 189 151.6" class="a"/><path d="M375.2 112.6c0 62.2-62.9 82.2-140.4 82.2S94.3 174.8 94.3 112.6C94.3 50.4 157.2 0 234.7 0S375.2 50.4 375.2 112.6z" fill="#F4C237"/><path d="M375.2 112.6c0 62.2-62.9 82.2-140.4 82.2S94.3 174.8 94.3 112.6c0-62.2 62.9-101.4 140.4-101.4S375.2 50.4 375.2 112.6z" class="b"/><path d="M375.2 112.6c0 62.2-62.9 82.2-140.4 82.2S94.3 174.8 94.3 112.6" fill="#EDA900"/><circle cx="172.3" cy="77.4" r="15.3" class="d"/><path d="M157 77.4c0 1.6 0.3 3 0.7 4.4 1.4 0.4 2.9 0.7 4.4 0.7 8.5 0 15.3-6.9 15.3-15.3 0-1.6-0.3-3-0.7-4.4 -1.4-0.4-2.9-0.7-4.4-0.7C163.8 62.1 157 69 157 77.4z" class="e"/><circle cx="297.2" cy="77.4" r="15.3" class="d"/><path d="M281.8 77.4c0 1.6 0.3 3 0.7 4.4 1.4 0.4 2.9 0.7 4.4 0.7 8.5 0 15.3-6.9 15.3-15.3 0-1.6-0.3-3-0.7-4.4 -1.4-0.4-2.9-0.7-4.4-0.7C288.7 62.1 281.8 69 281.8 77.4z" class="e"/><path d="M267.5 102l-30.3-21.4c-1.5-1.1-3.4-1.1-4.9 0l-30.3 21.4c-1.2 0.8-1.9 2.2-1.8 3.6 0 1.4 0.8 2.8 2.1 3.5l30.3 18.2c0.7 0.4 1.4 0.6 2.2 0.6 0.7 0 1.5-0.2 2.2-0.6l30.3-18.2c1.2-0.8 2-2.1 2.1-3.5C269.4 104.2 268.7 102.8 267.5 102z" class="f"/><path d="M267.5 102l-30.3-21.4c-1.5-1.1-3.4-1.1-4.9 0l-30.3 21.4c-1.2 0.8-1.9 2.2-1.8 3.6 0 1.4 0.8 2.8 2.1 3.5l30.3 5.7c0.7 0.4 1.4 0.6 2.2 0.6 0.7 0 1.5-0.2 2.2-0.6l30.3-5.7c1.2-0.8 2-2.1 2.1-3.5C269.4 104.2 268.7 102.8 267.5 102z" fill="#FF6D00"/><path d="M207.2 436.1c0 7.1-4.7 12.8-11.8 12.8l0 0c-7.1 0-11.8-5.7-11.8-12.8v-40c0-7.1 4.7-4.3 11.8-4.3l0 0c7.1 0 11.8-2.8 11.8 4.3V436.1z" class="f"/><path d="M150.4 469.5c-4.7 0-8.6-4.1-8.6-8.8 0-13.7 11.2-25.1 24.9-25.1h31.5c4.7 0 8.6 3.1 8.6 7.9 0 4.7-3.8 7.9-8.6 7.9h-31.5c-4.3 0-7.7 4.4-7.7 8.6C158.9 464.7 155.1 469.5 150.4 469.5z" class="f"/><path d="M175 469.5c-4.7 0-8.6-4.1-8.6-8.8 0-13.7 11.2-25.1 24.9-25.1h22.9c4.7 0 8.6 3.1 8.6 7.9 0 4.7-3.8 7.9-8.6 7.9h-22.9c-4.3 0-7.7 4.4-7.7 8.6C183.6 464.7 179.8 469.5 175 469.5z" class="f"/><path d="M262.3 436.1c0 7.1 4.7 12.8 11.8 12.8l0 0c7.1 0 11.8-5.7 11.8-12.8v-40c0-7.1-4.7-4.3-11.8-4.3l0 0c-7.1 0-11.8-2.8-11.8 4.3V436.1z" class="f"/><path d="M319.1 469.5c4.7 0 8.6-4.1 8.6-8.8 0-13.7-11.2-25.1-24.9-25.1h-31.5c-4.7 0-8.6 3.1-8.6 7.9 0 4.7 3.8 7.9 8.6 7.9h31.5c4.3 0 7.7 4.4 7.7 8.6C310.5 464.7 314.4 469.5 319.1 469.5z" class="f"/><path d="M294.5 469.5c4.7 0 8.6-4.1 8.6-8.8 0-13.7-11.2-25.1-24.9-25.1h-22.9c-4.7 0-8.6 3.1-8.6 7.9 0 4.7 3.8 7.9 8.6 7.9h22.9c4.3 0 7.7 4.4 7.7 8.6C285.9 464.7 289.7 469.5 294.5 469.5z" class="f"/></svg>