<svg xmlns="http://www.w3.org/2000/svg" id="Capa_1" viewBox="0 0 512 512"><style>.a{fill:#996443;}.b{opacity:0.1;}.c{fill:#734B32;}.d{fill:#FFA001;}.e{fill:#212121;}</style><path d="M474.7 231.2c26.5 24.5 44.9 58.7 34.2 95.2 -11 37.8-45.4 65.1-78.1 83.9 -55.1 31.6-128.8 34.4-174.8 80.9 -46-46.5-119.7-49.3-174.8-80.9 -32.7-18.8-67.1-46.1-78.1-83.9 -10.7-36.6 7.7-70.7 34.2-95.2L256 333.7 474.7 231.2z" class="a"/><path d="M37.3 231.2c-26.5 24.5-44.9 58.7-34.2 95.2 11 37.8 45.4 65.1 78.1 83.9 20.2 11.6 43 19.3 65.9 26.8 -13.9-13.8-25.2-30-30.7-48.8 -10.7-36.6 7.7-70.7 34.2-95.2L37.3 231.2z" class="b"/><path d="M420.7 83.6l-63.8 5.6 -9-43.2c-33.6-9.8-67.2-11-92-3.4 -24.8-7.7-58.4-6.5-92 3.4l1.5 42.4 -74.2-4.8c-32.6 26.6-55.9 64.5-55.9 113.4 0 123.5 67.9 144.4 128.2 144.4s92.5 26.2 92.5 26.2 32.3-26.2 92.5-26.2 128.2-20.8 128.2-144.4C476.7 148.1 453.4 110.2 420.7 83.6z" fill="#BE7D54"/><path d="M285.4 144.2c0-58 68-91 74.9-116.5 0 0 27.7 10 15.3 36.2 61.7-13.8 61.3-43.1 61.3-43.1s36.2 27.2-14.4 61.7c-25.5 16.5-36.3 19.2-36.3 19.2L285.4 144.2z" class="c"/><path d="M60.1 198.3c0-48.2 24.1-86 58.3-112.9l-27.1-1.8c-32.6 26.6-55.9 64.5-55.9 113.4 0 118.5 62.5 142.5 120.8 144.3C104.9 330.4 60.1 295.5 60.1 198.3z" class="b"/><path d="M226.6 144.2c0-58-68-91-74.9-116.5 0 0-27.7 10-15.3 36.2C74.8 50.1 75.2 20.8 75.2 20.8s-36.2 27.2 14.4 61.7c25.5 16.5 36.3 19.2 36.3 19.2L226.6 144.2z" class="c"/><circle cx="155" cy="173.2" r="77.2" class="a"/><circle cx="155" cy="173.2" r="45.8" class="d"/><circle cx="155" cy="173.2" r="18.5" class="e"/><circle cx="357" cy="173.2" r="77.2" class="a"/><circle cx="357" cy="173.2" r="45.8" class="d"/><circle cx="357" cy="173.2" r="18.5" class="e"/><path d="M291.4 210.5c36.9 28.9 18.5 60.9-25.5 60.9h-19.9c-44 0-62.4-32-25.5-60.8H291.4z" class="d"/><path d="M259.9 289.9c-1 4.1-6.7 4.1-7.7 0 -0.6-2.5-1.3-5.1-2.2-7.5 -3.8-11.4-11.2-30.8-18.6-40 -7.4-9.2-12-19.8-10.8-31.7 1.9-18.6 18.4-26.1 35.4-26.1 17 0 33.5 7.5 35.4 26.1 1.2 12-3.4 22.6-10.8 31.7 -7.4 9.2-14.8 28.7-18.6 40C261.2 284.8 260.5 287.3 259.9 289.9z" fill="#FFC108"/></svg>