<svg xmlns="http://www.w3.org/2000/svg" viewBox="0 0 136.5 136.5"><style>.a{fill:#469B9D;}.b{fill:#2595CE;}</style><path d="M80.3 64.9c0 0 5 23.7 23.5 15.1 0 0-7.8-7.4-4.5-11.7 3.2-4.3 15.9-17.2 15.9-17.2s10.3 10.6 1.2 20.6c0 0 9.1-7.7 20 1.1 0 0-15.1 23-24.9 13.9 0 0-17.7 27.9-60.3 31.3" class="a"/><path d="M40.2 33.2c0 0-2.3-3.5-8.2-3.1 -5.9 0.4-2.3-8.6 4.1-7.4C42.6 23.8 39.5 28.9 40.2 33.2z" class="b"/><path d="M40.9 22.5c0 0 0.1-2.7-3-4.6 -3.1-2 2-5.2 4.8-2.3C45.5 18.6 42.1 20 40.9 22.5z" class="b"/><path d="M42.2 33.2c0 0 2.3-3.5 8.2-3.1 5.9 0.4 2.4-8.6-4.1-7.4C39.9 23.8 43 28.9 42.2 33.2z" class="b"/><circle cx="41.2" cy="78.1" r="41.2" class="a"/><path d="M0.1 80.2c0 0 14.2 5.6 24.8-1 6-3.7 5.5 23 22.9 27.7 17.5 4.7 46.4-2.3 63.8-20.1 0 0-36.7 53.4-90.8 28.7C20.8 115.5 0.9 107 0.1 80.2z" fill="#D8D8D8"/><path d="M35.3 77.8c0 3.2 0.4 6.3 1.3 9.3 0.2 0.7 0.5 1.5 0.8 2.2 0.3 0.7 0.6 1.4 1 2.1l0.6 1 0.7 0.9 0.7 0.9c0.3 0.3 0.5 0.6 0.8 0.8 0.6 0.5 1.1 1 1.8 1.4 0.3 0.2 0.6 0.4 1 0.6 0.3 0.2 0.7 0.4 1 0.5 0.7 0.3 1.4 0.5 2.2 0.8 0.7 0.2 1.5 0.4 2.3 0.4l1.1 0.1 1.2 0c0.8 0.1 1.5-0.1 2.3-0.1 0.8-0.1 1.5-0.2 2.3-0.3l2.3-0.4 -0.3 0.2c0.2-0.3 0.4-0.7 0.5-1 0.1-0.4 0.3-0.8 0.4-1.2 0.1-0.4 0.1-0.8 0.2-1.2 0-0.4 0.1-0.8 0.1-1.2 0-0.4 0-0.8 0-1.2l-0.1-1.2 -0.2-1.2c-0.1-0.4-0.2-0.8-0.3-1.2 -0.1-0.4-0.2-0.8-0.4-1.2l-0.4-1.2c-0.1-0.4-0.3-0.8-0.5-1.2 -0.2-0.4-0.3-0.8-0.5-1.2 -0.4-0.8-0.7-1.5-1.2-2.3l-1.3-2.2 1.4 2.1c0.4 0.7 0.9 1.5 1.3 2.2 0.2 0.4 0.4 0.8 0.6 1.1 0.2 0.4 0.4 0.8 0.6 1.2l0.5 1.2c0.2 0.4 0.3 0.8 0.4 1.2 0.1 0.4 0.3 0.8 0.3 1.2l0.3 1.3 0.2 1.3c0 0.4 0 0.9 0.1 1.3 0 0.4 0 0.9-0.1 1.3 -0.1 0.4-0.1 0.9-0.2 1.3 -0.1 0.4-0.2 0.9-0.4 1.3 -0.2 0.4-0.3 0.8-0.6 1.2l-0.1 0.1 -0.2 0 -2.3 0.5c-0.8 0.1-1.6 0.2-2.4 0.3 -0.8 0-1.6 0.1-2.4 0.1l-1.2 0c-0.4 0-0.8-0.1-1.2-0.1 -0.8-0.1-1.6-0.3-2.4-0.5 -0.8-0.2-1.6-0.5-2.3-0.8 -0.4-0.1-0.7-0.4-1.1-0.6 -0.4-0.2-0.7-0.4-1-0.6 -0.7-0.5-1.3-1-1.9-1.6 -0.3-0.3-0.6-0.6-0.8-0.9l-0.8-1 -0.7-1 -0.6-1.1c-0.4-0.7-0.7-1.5-1-2.2 -0.3-0.8-0.5-1.5-0.7-2.3 -0.2-0.8-0.4-1.6-0.5-2.3 -0.1-0.8-0.2-1.6-0.3-2.4C35.1 81 35.1 79.4 35.3 77.8z" fill="#218588"/><circle cx="17.3" cy="64.2" r="3.8" fill="#434849"/><circle cx="18.8" cy="63.5" r="1.4" fill="#FFF"/></svg>