<?xml version="1.0" encoding="iso-8859-1"?>
<!-- Generator: Adobe Illustrator 19.0.0, SVG Export Plug-In . SVG Version: 6.00 Build 0)  -->
<svg version="1.1" id="Capa_1" xmlns="http://www.w3.org/2000/svg" xmlns:xlink="http://www.w3.org/1999/xlink" x="0px" y="0px"
	 viewBox="0 0 512 512" style="enable-background:new 0 0 512 512;" xml:space="preserve">
<path style="fill:#61AE9F;" d="M197,382c35.899,0,65,29.102,65,65s-29.101,65-65,65s-65-29.102-65-65S161.101,382,197,382z"/>
<path style="fill:#4C9089;" d="M262,447c0,35.898-29.102,65-65,65c-3.751,0-7.422-0.335-11-0.946c30.657-5.229,54-31.907,54-64.054
	s-23.343-58.826-54-64.054c3.578-0.61,7.249-0.946,11-0.946C232.898,382,262,411.102,262,447z"/>
<path style="fill:#4A7273;" d="M209.5,429v-4c0-0.276-0.225-0.5-0.5-0.5h-16c-4.687,0-8.5,3.813-8.5,8.5v28
	c0,4.687,3.813,8.5,8.5,8.5h16c0.275,0,0.5-0.224,0.5-0.5v-4c0-4.142,3.357-7.5,7.5-7.5s7.5,3.358,7.5,7.5v4
	c0,8.547-6.953,15.5-15.5,15.5h-16c-12.958,0-23.5-10.542-23.5-23.5v-28c0-12.958,10.542-23.5,23.5-23.5h16
	c8.547,0,15.5,6.953,15.5,15.5v4c0,4.142-3.357,7.5-7.5,7.5S209.5,433.142,209.5,429z"/>
<path style="fill:#FE5E47;" d="M392,180c66.274,0,120,53.726,120,120s-53.726,120-120,120s-120-53.726-120-120S325.726,180,392,180z
	"/>
<path style="fill:#F53737;" d="M512,300c0,66.274-53.726,120-120,120c-3.709,0-7.376-0.177-11-0.507
	c61.117-5.556,109-56.928,109-119.493s-47.883-113.938-109-119.493c3.624-0.329,7.291-0.507,11-0.507
	C458.274,180,512,233.726,512,300z"/>
<path style="fill:#DB3131;" d="M417.426,283.241c2.169-3.931,3.407-8.444,3.407-13.241c0-15.164-12.337-27.5-27.5-27.5h-26.666
	c-4.143,0-7.5,3.358-7.5,7.5v40v60c0,4.142,3.357,7.5,7.5,7.5H410c20.678,0,37.5-16.822,37.5-37.5
	C447.5,301.864,434.559,286.697,417.426,283.241z M374.167,257.5h19.166c6.893,0,12.5,5.607,12.5,12.5s-5.607,12.5-12.5,12.5
	h-19.166V257.5z M410,342.5h-35.833v-45h19.166H410c12.406,0,22.5,10.093,22.5,22.5S422.406,342.5,410,342.5z"/>
<path style="fill:#FFD178;" d="M340,170c0,93.888-76.112,170-170,170S0,263.888,0,170S76.112,0,170,0S340,76.112,340,170z"/>
<path style="fill:#FFB05F;" d="M340,170c0,93.888-76.112,170-170,170c-5.056,0-10.056-0.234-15-0.666
	c86.861-7.596,155-80.501,155-169.334S241.861,8.262,155,0.666C159.944,0.234,164.944,0,170,0C263.888,0,340,76.112,340,170z"/>
<path style="fill:#FF904E;" d="M237.115,242.627l-19.951-59.852c-0.002-0.007-0.005-0.014-0.007-0.021l-26.88-80.64
	c-2.914-8.742-11.063-14.615-20.277-14.615s-17.363,5.873-20.277,14.615l-26.879,80.637c-0.002,0.008-0.005,0.016-0.008,0.024
	l-19.95,59.851c-1.31,3.929,0.813,8.177,4.743,9.487c3.932,1.308,8.177-0.815,9.487-4.744l18.291-54.872h69.188l18.291,54.872
	c1.048,3.143,3.974,5.13,7.114,5.13c0.786,0,1.586-0.125,2.373-0.387C236.302,250.804,238.425,246.557,237.115,242.627z
	 M140.406,177.499l23.547-70.641c0.869-2.607,3.299-4.359,6.047-4.359s5.178,1.751,6.047,4.358l23.547,70.642H140.406z"/>
<g>
</g>
<g>
</g>
<g>
</g>
<g>
</g>
<g>
</g>
<g>
</g>
<g>
</g>
<g>
</g>
<g>
</g>
<g>
</g>
<g>
</g>
<g>
</g>
<g>
</g>
<g>
</g>
<g>
</g>
</svg>
