<svg xmlns="http://www.w3.org/2000/svg" viewBox="0 0 496 496"><path d="M496 428c0 6.4-5.6 12-12 12H12c-6.4 0-12-5.6-12-12l0 0c0-6.4 5.6-12 12-12h472C490.4 416 496 421.6 496 428L496 428z" fill="#719FA3"/><rect x="24" y="56" width="88" height="344" fill="#1589AD"/><polyline points="24 56 112 56 112 400 " fill="#04567F"/><rect x="144" y="128" width="88" height="272" fill="#24966A"/><polyline points="144 128 232 128 232 400 " fill="#007763"/><rect x="264" y="208" width="88" height="192" fill="#E8961F"/><polyline points="264 208 352 208 352 400 " fill="#E57520"/><rect x="384" y="272" width="88" height="128" fill="#D32A0F"/><polyline points="384 272 472 272 472 400 " fill="#AF1909"/></svg>