<svg xmlns="http://www.w3.org/2000/svg" viewBox="0 0 512 512"><style>.a{fill:#8F96AC;}.b{fill:#D7DEED;}</style><path d="M17.7 397.2c-3.5 0-6.7-2-8.2-5.4 -1.9-4.5 0.3-9.7 4.8-11.5l102.5-42.7 51.6-129c1.1-2.8 3.5-4.8 6.4-5.4 2.9-0.6 5.9 0.3 8 2.4l72.9 72.9 66.6-72.7c3.3-3.6 8.9-3.8 12.5-0.5 3.6 3.3 3.8 8.9 0.5 12.5l-72.8 79.4c-1.6 1.8-3.9 2.8-6.3 2.9 -2.2 0-4.7-0.9-6.4-2.6l-70-70 -48 120c-0.9 2.2-2.6 4-4.8 4.9L21.1 396.6C19.9 397 18.8 397.2 17.7 397.2z" class="a"/><path d="M388.4 178.8c-3.4 0-6.6-2-8.1-5.3 -2-4.5 0.1-9.7 4.5-11.6L490.8 115.5c4.5-2 9.7 0.1 11.6 4.5 2 4.5-0.1 9.7-4.5 11.6l-105.9 46.3C390.8 178.5 389.6 178.8 388.4 178.8z" class="a"/><circle cx="494.3" cy="123.6" r="17.7" fill="#9BE6D2"/><circle cx="256" cy="291.3" r="17.7" fill="#FFD782"/><circle cx="176.6" cy="211.9" r="17.7" fill="#FFA05A"/><circle cx="123.6" cy="344.3" r="17.7" fill="#FF6464"/><circle cx="17.7" cy="388.4" r="17.7" fill="#00D2FF"/><circle cx="353.1" cy="8.8" r="8.8" class="b"/><circle cx="353.1" cy="44.1" r="8.8" class="b"/><circle cx="353.1" cy="79.4" r="8.8" class="b"/><circle cx="353.1" cy="114.8" r="8.8" class="b"/><circle cx="353.1" cy="185.4" r="17.7" fill="#C3E678"/><circle cx="353.1" cy="256" r="8.8" class="b"/><circle cx="353.1" cy="291.3" r="8.8" class="b"/><circle cx="353.1" cy="326.6" r="8.8" class="b"/><circle cx="353.1" cy="361.9" r="8.8" class="b"/><circle cx="353.1" cy="397.2" r="8.8" class="b"/><circle cx="353.1" cy="432.6" r="8.8" class="b"/><circle cx="353.1" cy="467.9" r="8.8" class="b"/><circle cx="353.1" cy="503.2" r="8.8" class="b"/><path d="M353.1 229.5c-24.3 0-44.1-19.8-44.1-44.1s19.8-44.1 44.1-44.1 44.1 19.8 44.1 44.1S377.4 229.5 353.1 229.5zM353.1 158.9c-14.6 0-26.5 11.9-26.5 26.5s11.9 26.5 26.5 26.5c14.6 0 26.5-11.9 26.5-26.5S367.7 158.9 353.1 158.9z" class="b"/></svg>