<svg xmlns="http://www.w3.org/2000/svg" id="Capa_1" width="512" height="512" viewBox="0 0 96.9 96.9"><path d="M48.5 2.4L0 37.6l18.5 57h59.9l18.5-57L48.5 2.4zM49 6.6L92.5 38.2l-11.1 2.5c-0.4-0.8-1.2-1.5-2.2-1.5 -0.2 0-0.4 0-0.6 0.1L50.7 15.8c0-0.2 0.1-0.4 0.1-0.5 0-1.1-0.8-2-1.8-2.3V6.6zM64.9 77.7l-37.2 4.8c-0.1-0.2-0.2-0.3-0.3-0.5l6.2-9.6c0.2 0.1 0.5 0.1 0.7 0.1 1.3 0 2.3-1.1 2.3-2.3 0 0 0 0 0 0l19.6-4.8c0.4 0.7 1.2 1.2 2 1.2 0.3 0 0.7-0.1 0.9-0.2l6.3 9.6c-0.4 0.4-0.7 1-0.7 1.7C64.9 77.7 64.9 77.7 64.9 77.7zM34.4 44.8c0-0.2-0.1-0.4-0.3-0.6l12.9-9.3c0.3 0.2 0.6 0.4 1 0.5v12.5L34.4 44.8zM47.6 48.9L35.2 68.1c-0.1-0.1-0.3-0.1-0.4-0.1l-1.9-20.4c0.7-0.3 1.3-0.8 1.5-1.6L47.6 48.9zM46.1 33c0 0.3 0.1 0.6 0.2 0.9l-12.9 9.4c-0.4-0.2-0.8-0.4-1.3-0.4 -0.8 0-1.4 0.4-1.9 0.9l-10.7-2.4c0-0.1-0.1-0.2-0.1-0.3l28.2-23.7c0.1 0.1 0.2 0.1 0.4 0.1v13.2C46.9 31 46.1 31.9 46.1 33zM19.5 42.6l10.3 2.3c0 0.1 0 0.3 0 0.4 0 1.2 0.9 2.2 2 2.3l1.9 20.4c-0.9 0.3-1.6 1.2-1.6 2.2 0 0.6 0.3 1.2 0.7 1.6l-6.2 9.5c-0.1-0.1-0.3-0.1-0.4-0.1l-7.5-37.5C19.1 43.5 19.3 43.1 19.5 42.6zM57.8 61.9l-8.4-12.9 13.3-3c0.2 0.5 0.5 0.9 0.9 1.2l-4.8 14.7c-0.1 0-0.3 0-0.4 0C58.2 61.9 58 61.9 57.8 61.9zM60.2 65.7c0.3-0.4 0.5-0.9 0.5-1.5 0-0.7-0.4-1.4-0.9-1.8l4.8-14.7c0.1 0 0.2 0 0.3 0 1.3 0 2.3-1.1 2.3-2.3 0-0.1 0-0.2 0-0.3L77.2 42.8c0.2 0.3 0.5 0.6 0.8 0.8L67.7 75.4c-0.1 0-0.3 0-0.5 0 -0.2 0-0.5 0.1-0.7 0.1L60.2 65.7zM49 17.6c0.1 0 0.3-0.1 0.4-0.1l27.7 23.3c-0.1 0.3-0.2 0.6-0.2 0.9 0 0 0 0.1 0 0.1l-10.1 2.3c-0.4-0.6-1.1-1-1.9-1 -0.5 0-0.9 0.1-1.3 0.4l-12.9-9.4c0.1-0.3 0.2-0.6 0.2-0.9 0-1.1-0.8-2-1.8-2.3V17.6L49 17.6zM49 35.3c0.4-0.1 0.7-0.3 1-0.5l12.9 9.3c-0.1 0.2-0.2 0.5-0.3 0.8l-13.6 3V35.3L49 35.3zM56.8 62.5c-0.5 0.4-0.8 1-0.8 1.7 0 0 0 0.1 0 0.1l-19.6 4.8c-0.1-0.2-0.2-0.4-0.4-0.5L48.5 49.7 56.8 62.5zM47.9 6.6v6.4c-1 0.2-1.8 1.2-1.8 2.3 0 0.2 0 0.4 0.1 0.5L17.8 39.8c-0.2-0.1-0.4-0.1-0.6-0.1 -0.7 0-1.4 0.4-1.8 0.9L4.6 38.1 47.9 6.6zM3.8 39.1l11.1 2.5c0 0.1 0 0.3 0 0.4 0 1.1 0.8 2 1.8 2.3l7.5 37.4c-0.5 0.4-0.9 1.1-0.9 1.8 0 0.7 0.3 1.3 0.8 1.7l-3.5 5.4L3.8 39.1zM21.3 91.4l3.7-5.7c0.2 0.1 0.4 0.1 0.6 0.1 0.9 0 1.7-0.5 2.1-1.2l38.4-4.9c0.3 0.2 0.7 0.3 1.2 0.3 0.3 0 0.6-0.1 0.8-0.2l7.5 11.6H21.3zM76.4 90.6l-7.4-11.4c0.4-0.4 0.6-1 0.6-1.6 0-0.3-0.1-0.6-0.2-0.8l10.8-33.1c0.8-0.3 1.3-1.1 1.4-2l11.6-2.6L76.4 90.6z" fill="#006DF0"/></svg>
 